<svg width="131" height="12" viewBox="0 0 131 12" fill="none" xmlns="http://www.w3.org/2000/svg">
  <path
    d="M20.3658 1.42288H20.3301L18.1862 2.90929C18.1005 2.98076 18.0004 2.90929 18.0004 2.80925V2.09462C17.9978 2.04504 18.0075 1.99558 18.0287 1.95068C18.0499 1.90578 18.082 1.86684 18.1219 1.83736L20.2658 0.279475C20.3348 0.212344 20.4268 0.174016 20.523 0.172282H21.1305C21.1533 0.171267 21.176 0.175009 21.1973 0.183269C21.2186 0.191529 21.2379 0.204128 21.254 0.220261C21.2701 0.236394 21.2827 0.255709 21.291 0.276977C21.2992 0.298244 21.303 0.320998 21.302 0.343791V11.6634C21.303 11.6862 21.2992 11.709 21.291 11.7303C21.2827 11.7515 21.2701 11.7708 21.254 11.787C21.2379 11.8031 21.2186 11.8157 21.1973 11.824C21.176 11.8322 21.1533 11.836 21.1305 11.835H20.5445C20.522 11.8361 20.4995 11.8323 20.4786 11.824C20.4576 11.8157 20.4387 11.803 20.4231 11.7867C20.4076 11.7704 20.3957 11.751 20.3882 11.7298C20.3808 11.7085 20.378 11.6859 20.3801 11.6634L20.3658 1.42288Z"
    fill="currentColor"
  />
  <path
    d="M24.6953 5.99643C24.6953 3.20225 24.8168 2.50192 24.9526 2.08744C25.18 1.47474 25.5895 0.946319 26.126 0.573165C26.6626 0.200012 27.3005 0 27.954 0C28.6075 0 29.2454 0.200012 29.782 0.573165C30.3185 0.946319 30.728 1.47474 30.9554 2.08744C31.0912 2.50192 31.2127 3.20225 31.2127 5.99643C31.2127 8.79061 31.0912 9.49808 30.9554 9.91256C30.728 10.5253 30.3185 11.0537 29.782 11.4268C29.2454 11.8 28.6075 12 27.954 12C27.3005 12 26.6626 11.8 26.126 11.4268C25.5895 11.0537 25.18 10.5253 24.9526 9.91256C24.7811 9.49808 24.6953 8.79775 24.6953 5.99643ZM27.954 11.1274C28.4144 11.1676 28.8745 11.0472 29.2562 10.7867C29.6378 10.5262 29.9176 10.1416 30.0479 9.69818C30.1693 9.31943 30.2837 8.68341 30.2837 5.98928C30.2837 3.29515 30.1693 2.66628 30.0479 2.28753C29.882 1.86743 29.5937 1.50693 29.2203 1.25287C28.8468 0.998816 28.4056 0.86296 27.954 0.86296C27.5024 0.86296 27.0612 0.998816 26.6877 1.25287C26.3143 1.50693 26.026 1.86743 25.8601 2.28753C25.7387 2.66628 25.6172 3.3023 25.6172 5.98928C25.6172 8.67627 25.7387 9.31943 25.8601 9.69818C25.9892 10.1351 26.2636 10.515 26.6378 10.7748C27.012 11.0347 27.4638 11.1591 27.9183 11.1274H27.954Z"
    fill="currentColor"
  />
  <path
    d="M33.7852 5.99643C33.7852 3.20225 33.8995 2.50192 34.0424 2.08744C34.2698 1.47474 34.6793 0.946319 35.2159 0.573165C35.7524 0.200012 36.3903 0 37.0438 0C37.6974 0 38.3353 0.200012 38.8718 0.573165C39.4084 0.946319 39.8179 1.47474 40.0453 2.08744C40.1811 2.50192 40.3025 3.20225 40.3025 5.99643C40.3025 8.79061 40.1811 9.49808 40.0453 9.91256C39.8179 10.5253 39.4084 11.0537 38.8718 11.4268C38.3353 11.8 37.6974 12 37.0438 12C36.3903 12 35.7524 11.8 35.2159 11.4268C34.6793 11.0537 34.2698 10.5253 34.0424 9.91256C33.8995 9.49808 33.7852 8.79775 33.7852 5.99643ZM37.0438 11.1274C37.5042 11.1676 37.9643 11.0472 38.346 10.7867C38.7277 10.5262 39.0074 10.1416 39.1377 9.69818C39.252 9.31943 39.3735 8.68341 39.3735 5.98928C39.3735 3.29515 39.252 2.66628 39.1377 2.28753C38.9719 1.86743 38.6835 1.50693 38.3101 1.25287C37.9367 0.998816 37.4955 0.86296 37.0438 0.86296C36.5922 0.86296 36.151 0.998816 35.7776 1.25287C35.4042 1.50693 35.1158 1.86743 34.95 2.28753C34.8285 2.66628 34.707 3.3023 34.707 5.98928C34.707 8.67627 34.8285 9.31943 34.95 9.69818C35.0791 10.1423 35.3585 10.5277 35.7405 10.7884C36.1225 11.0492 36.5832 11.169 37.0438 11.1274Z"
    fill="currentColor"
  />
  <path
    d="M43.0497 10.4923C43.0177 10.4574 43 10.4118 43 10.3644C43 10.3171 43.0177 10.2714 43.0497 10.2365L44.111 9.01411C44.1252 8.99633 44.1432 8.98198 44.1637 8.97212C44.1842 8.96226 44.2067 8.95714 44.2294 8.95714C44.2522 8.95714 44.2746 8.96226 44.2951 8.97212C44.3156 8.98198 44.3337 8.99633 44.3479 9.01411C45.232 9.76653 46.3432 10.2003 47.5033 10.246C48.8868 10.246 49.6922 9.54475 49.6922 8.56874C49.6922 7.73488 49.1805 7.18528 47.5696 6.96734L46.9537 6.88206C44.7269 6.56936 43.4571 5.49859 43.4571 3.56554C43.4571 1.47139 44.9922 0.0689745 47.3896 0.0689745C48.7445 0.0467856 50.0716 0.454852 51.1799 1.23449C51.2652 1.30083 51.2747 1.36716 51.1799 1.47139L50.3176 2.72219C50.3059 2.74165 50.2905 2.75859 50.2722 2.77202C50.2539 2.78544 50.2332 2.79508 50.2111 2.80038C50.189 2.80567 50.1661 2.80651 50.1438 2.80285C50.1214 2.79919 50.0999 2.7911 50.0807 2.77905C49.2711 2.18517 48.2986 1.85438 47.2948 1.83147C46.1198 1.83147 45.4755 2.4853 45.4755 3.3855C45.4755 4.2857 46.0346 4.73106 47.6075 4.95848L48.214 5.04376C50.4503 5.34698 51.6821 6.40827 51.6821 8.39818C51.6821 10.3881 50.1944 11.999 47.3138 11.999C45.7583 12.0208 44.2462 11.4865 43.0497 10.4923V10.4923Z"
    fill="currentColor"
  />
  <path
    d="M56.6771 11.8474C56.6544 11.8488 56.6316 11.8453 56.6103 11.8372C56.5889 11.8291 56.5696 11.8166 56.5534 11.8005C56.5373 11.7844 56.5248 11.765 56.5167 11.7437C56.5086 11.7224 56.5052 11.6996 56.5066 11.6768V2.15366C56.5081 2.13961 56.5064 2.12539 56.5017 2.11207C56.497 2.09874 56.4893 2.08664 56.4793 2.07665C56.4693 2.06666 56.4572 2.05902 56.4439 2.05431C56.4306 2.0496 56.4164 2.04793 56.4023 2.04943H53.3701C53.3473 2.05081 53.3245 2.04734 53.3032 2.03926C53.2819 2.03118 53.2625 2.01866 53.2464 2.00254C53.2303 1.98642 53.2178 1.96706 53.2097 1.94573C53.2016 1.92441 53.1981 1.90162 53.1995 1.87886V0.410119C53.1981 0.38736 53.2016 0.364564 53.2097 0.343243C53.2178 0.321922 53.2303 0.30256 53.2464 0.286438C53.2625 0.270315 53.2819 0.257798 53.3032 0.249716C53.3245 0.241633 53.3473 0.238171 53.3701 0.239555H61.6614C61.6841 0.238171 61.7069 0.241633 61.7283 0.249716C61.7496 0.257798 61.7689 0.270315 61.7851 0.286438C61.8012 0.30256 61.8137 0.321922 61.8218 0.343243C61.8299 0.364564 61.8333 0.38736 61.8319 0.410119V1.87886C61.8333 1.90162 61.8299 1.92441 61.8218 1.94573C61.8137 1.96706 61.8012 1.98642 61.7851 2.00254C61.7689 2.01866 61.7496 2.03118 61.7283 2.03926C61.7069 2.04734 61.6841 2.05081 61.6614 2.04943H58.6197C58.6056 2.04793 58.5914 2.0496 58.5781 2.05431C58.5647 2.05902 58.5526 2.06666 58.5427 2.07665C58.5327 2.08664 58.525 2.09874 58.5203 2.11207C58.5156 2.12539 58.5139 2.13961 58.5154 2.15366V11.6768C58.5168 11.6996 58.5133 11.7224 58.5053 11.7437C58.4972 11.765 58.4847 11.7844 58.4685 11.8005C58.4524 11.8166 58.4331 11.8291 58.4117 11.8372C58.3904 11.8453 58.3676 11.8488 58.3449 11.8474H56.6771Z"
    fill="currentColor"
  />
  <path
    d="M65.8869 0.410099C65.8979 0.360829 65.9256 0.316891 65.9653 0.285784C66.0051 0.254678 66.0544 0.23833 66.1048 0.239534H67.6778C67.7287 0.236384 67.779 0.252003 67.8192 0.283435C67.8593 0.314867 67.8866 0.359931 67.8958 0.410099L71.8282 11.6768C71.8282 11.7716 71.8282 11.8474 71.705 11.8474H70.0373C69.9852 11.8509 69.9337 11.8356 69.8919 11.8043C69.8502 11.773 69.8211 11.7277 69.8099 11.6768L69.0423 9.42157H64.674L63.9065 11.6768C63.8973 11.727 63.87 11.772 63.8299 11.8035C63.7897 11.8349 63.7394 11.8505 63.6885 11.8474H62.0303C61.9166 11.8474 61.8787 11.7716 61.9166 11.6768L65.8869 0.410099ZM68.4264 7.63065L66.9103 3.12017L65.3563 7.63065H68.4264Z"
    fill="currentColor"
  />
  <path
    d="M80.4258 11.8475C80.3698 11.8541 80.3133 11.8406 80.2664 11.8093C80.2196 11.7781 80.1853 11.7311 80.17 11.6769L77.9526 7.14747H75.9532C75.9392 7.14597 75.925 7.14765 75.9116 7.15236C75.8983 7.15707 75.8862 7.1647 75.8762 7.17469C75.8662 7.18469 75.8586 7.19679 75.8539 7.21011C75.8492 7.22344 75.8475 7.23765 75.849 7.2517V11.6769C75.8504 11.6996 75.8469 11.7224 75.8388 11.7438C75.8308 11.7651 75.8182 11.7844 75.8021 11.8006C75.786 11.8167 75.7666 11.8292 75.7453 11.8373C75.724 11.8454 75.7012 11.8488 75.6784 11.8475H74.0107C73.9879 11.8488 73.9652 11.8454 73.9438 11.8373C73.9225 11.8292 73.9032 11.8167 73.887 11.8006C73.8709 11.7844 73.8584 11.7651 73.8503 11.7438C73.8422 11.7224 73.8388 11.6996 73.8401 11.6769V0.41019C73.8388 0.38743 73.8422 0.364634 73.8503 0.343314C73.8584 0.321993 73.8709 0.302631 73.887 0.286508C73.9032 0.270385 73.9225 0.257869 73.9438 0.249786C73.9652 0.241704 73.9879 0.238242 74.0107 0.239625H78.4927C78.9649 0.205903 79.4388 0.269435 79.8854 0.426293C80.332 0.583151 80.7416 0.829994 81.0889 1.15154C81.4362 1.47309 81.7138 1.86251 81.9045 2.29568C82.0953 2.72885 82.1951 3.19656 82.1978 3.66986C82.2135 4.36449 82.0094 5.04633 81.6146 5.61809C81.2198 6.18985 80.6545 6.62229 79.9994 6.85372L82.4347 11.5916C82.4505 11.6127 82.4602 11.6378 82.4625 11.6641C82.4649 11.6904 82.4599 11.7168 82.4481 11.7405C82.4363 11.7641 82.4181 11.7839 82.3957 11.7978C82.3732 11.8117 82.3474 11.819 82.321 11.819L80.4258 11.8475ZM80.1794 3.66986C80.1874 3.4401 80.146 3.21131 80.0582 2.99886C79.9704 2.7864 79.8381 2.59521 79.6702 2.43813C79.5024 2.28104 79.3028 2.16171 79.085 2.08814C78.8672 2.01457 78.6362 1.98847 78.4075 2.0116H75.9532C75.9392 2.0101 75.925 2.01177 75.9116 2.01648C75.8983 2.02119 75.8862 2.02882 75.8762 2.03882C75.8662 2.04881 75.8586 2.06092 75.8539 2.07424C75.8492 2.08757 75.8475 2.10178 75.849 2.11583V5.20493C75.849 5.27126 75.849 5.29969 75.9532 5.29969H78.4264C78.6512 5.31963 78.8777 5.29212 79.0911 5.21894C79.3046 5.14575 79.5003 5.02853 79.6656 4.87487C79.8309 4.72121 79.962 4.53454 80.0505 4.32695C80.1391 4.11937 80.183 3.8955 80.1794 3.66986V3.66986Z"
    fill="currentColor"
  />
  <path
    d="M84.8245 0.410119C84.8231 0.38736 84.8266 0.364564 84.8347 0.343243C84.8428 0.321922 84.8553 0.302561 84.8714 0.286438C84.8875 0.270315 84.9069 0.257798 84.9282 0.249716C84.9495 0.241633 84.9723 0.238171 84.9951 0.239555H86.6628C86.6856 0.238171 86.7084 0.241633 86.7297 0.249716C86.751 0.257798 86.7704 0.270315 86.7865 0.286438C86.8026 0.302561 86.8151 0.321922 86.8232 0.343243C86.8313 0.364564 86.8348 0.38736 86.8334 0.410119V9.88591C86.8319 9.89996 86.8336 9.91417 86.8383 9.92749C86.843 9.94082 86.8506 9.95292 86.8606 9.96292C86.8706 9.97291 86.8827 9.98054 86.896 9.98525C86.9094 9.98996 86.9236 9.99163 86.9376 9.99014H92.263C92.2858 9.98875 92.3086 9.99222 92.3299 10.0003C92.3512 10.0084 92.3706 10.0209 92.3867 10.037C92.4028 10.0531 92.4153 10.0725 92.4234 10.0938C92.4315 10.1152 92.435 10.1379 92.4336 10.1607V11.6295C92.435 11.6522 92.4315 11.675 92.4234 11.6963C92.4153 11.7176 92.4028 11.737 92.3867 11.7531C92.3706 11.7693 92.3512 11.7818 92.3299 11.7899C92.3086 11.7979 92.2858 11.8014 92.263 11.8H84.9951C84.9723 11.8014 84.9495 11.7979 84.9282 11.7899C84.9069 11.7818 84.8875 11.7693 84.8714 11.7531C84.8553 11.737 84.8428 11.7176 84.8347 11.6963C84.8266 11.675 84.8231 11.6522 84.8245 11.6295V0.410119Z"
    fill="currentColor"
  />
  <path
    d="M94.5433 0.410119C94.5419 0.38736 94.5453 0.364564 94.5534 0.343243C94.5615 0.321922 94.574 0.30256 94.5901 0.286438C94.6063 0.270315 94.6256 0.257798 94.647 0.249716C94.6683 0.241633 94.6911 0.238171 94.7138 0.239555H96.3816C96.4043 0.238171 96.4271 0.241633 96.4484 0.249716C96.4698 0.257798 96.4891 0.270315 96.5052 0.286438C96.5214 0.30256 96.5339 0.321922 96.542 0.343243C96.55 0.364564 96.5535 0.38736 96.5521 0.410119V11.6768C96.5535 11.6996 96.55 11.7224 96.542 11.7437C96.5339 11.765 96.5214 11.7844 96.5052 11.8005C96.4891 11.8166 96.4698 11.8291 96.4484 11.8372C96.4271 11.8453 96.4043 11.8488 96.3816 11.8474H94.7138C94.6911 11.8488 94.6683 11.8453 94.647 11.8372C94.6256 11.8291 94.6063 11.8166 94.5901 11.8005C94.574 11.7844 94.5615 11.765 94.5534 11.7437C94.5453 11.7224 94.5419 11.6996 94.5433 11.6768V0.410119Z"
    fill="currentColor"
  />
  <path
    d="M99.5355 0.410119C99.5341 0.38736 99.5375 0.364564 99.5456 0.343243C99.5537 0.321922 99.5662 0.30256 99.5823 0.286438C99.5985 0.270315 99.6178 0.257798 99.6391 0.249716C99.6605 0.241633 99.6833 0.238171 99.706 0.239555H101.279C101.339 0.237803 101.398 0.252842 101.45 0.282978C101.502 0.313114 101.545 0.35715 101.573 0.410119L106.311 8.41714H106.377V0.410119C106.376 0.38736 106.379 0.364564 106.387 0.343243C106.395 0.321922 106.408 0.30256 106.424 0.286438C106.44 0.270315 106.459 0.257798 106.481 0.249716C106.502 0.241633 106.525 0.238171 106.548 0.239555H108.035C108.058 0.238171 108.081 0.241633 108.102 0.249716C108.123 0.257798 108.143 0.270315 108.159 0.286438C108.175 0.30256 108.188 0.321922 108.196 0.343243C108.204 0.364564 108.207 0.38736 108.206 0.410119V11.6768C108.207 11.6996 108.204 11.7224 108.196 11.7437C108.188 11.765 108.175 11.7844 108.159 11.8005C108.143 11.8166 108.123 11.8291 108.102 11.8372C108.081 11.8453 108.058 11.8488 108.035 11.8474H106.481C106.422 11.8496 106.364 11.8347 106.314 11.8044C106.263 11.7741 106.223 11.7298 106.197 11.6768L101.459 3.68873H101.393V11.6768C101.394 11.6996 101.391 11.7224 101.383 11.7437C101.374 11.765 101.362 11.7844 101.346 11.8005C101.33 11.8166 101.31 11.8291 101.289 11.8372C101.268 11.8453 101.245 11.8488 101.222 11.8474H99.706C99.6608 11.8474 99.6174 11.8294 99.5854 11.7974C99.5534 11.7654 99.5355 11.722 99.5355 11.6768V0.410119Z"
    fill="currentColor"
  />
  <path
    d="M110.833 6.03873C110.753 4.96793 110.856 3.89131 111.136 2.85487C111.4 1.97842 111.955 1.21848 112.71 0.70133C113.465 0.184184 114.374 -0.0590193 115.287 0.01214C116.133 -0.0473051 116.978 0.157861 117.702 0.599247C118.427 1.04063 118.997 1.69641 119.333 2.47584C119.349 2.51807 119.35 2.56453 119.337 2.60759C119.323 2.65065 119.295 2.68774 119.257 2.71274L117.826 3.33814C117.806 3.34747 117.785 3.35266 117.763 3.3534C117.741 3.35413 117.719 3.35039 117.699 3.34241C117.679 3.33443 117.66 3.32237 117.644 3.30697C117.629 3.29158 117.617 3.27316 117.608 3.25286C117.395 2.81243 117.057 2.44501 116.635 2.19707C116.213 1.94913 115.728 1.8318 115.239 1.85992C114.757 1.82365 114.277 1.9546 113.88 2.23074C113.483 2.50688 113.194 2.91134 113.06 3.37604C112.858 4.24824 112.788 5.14574 112.851 6.03873C112.788 6.93173 112.858 7.82923 113.06 8.70143C113.193 9.16696 113.483 9.57253 113.879 9.85025C114.276 10.128 114.756 10.261 115.239 10.227C115.715 10.256 116.186 10.1292 116.583 9.86588C116.98 9.60253 117.28 9.21701 117.438 8.76776C117.582 8.28241 117.646 7.77665 117.627 7.27058C117.629 7.25653 117.627 7.24232 117.622 7.229C117.618 7.21567 117.61 7.20357 117.6 7.19358C117.59 7.18358 117.578 7.17595 117.565 7.17124C117.551 7.16653 117.537 7.16486 117.523 7.16635H115.628C115.605 7.16773 115.582 7.16427 115.561 7.15619C115.54 7.14811 115.52 7.13559 115.504 7.11947C115.488 7.10334 115.476 7.08398 115.467 7.06266C115.459 7.04134 115.456 7.01855 115.457 6.99579V5.63128C115.456 5.60852 115.459 5.58572 115.467 5.5644C115.476 5.54308 115.488 5.52372 115.504 5.5076C115.52 5.49148 115.54 5.47896 115.561 5.47088C115.582 5.46279 115.605 5.45933 115.628 5.46071H119.418C119.441 5.45933 119.464 5.46279 119.485 5.47088C119.506 5.47896 119.526 5.49148 119.542 5.5076C119.558 5.52372 119.57 5.54308 119.579 5.5644C119.587 5.58572 119.59 5.60852 119.589 5.63128V6.63571C119.612 7.49386 119.52 8.35124 119.314 9.18469C118.99 10.0142 118.423 10.7267 117.688 11.229C116.952 11.7313 116.083 12 115.192 12C114.301 12 113.432 11.7313 112.696 11.229C111.961 10.7267 111.394 10.0142 111.07 9.18469C110.816 8.15664 110.736 7.09326 110.833 6.03873V6.03873Z"
    fill="currentColor"
  />
  <path
    d="M121.682 10.4923C121.665 10.4756 121.652 10.4557 121.643 10.4337C121.634 10.4118 121.629 10.3882 121.629 10.3644C121.629 10.3406 121.634 10.3171 121.643 10.2951C121.652 10.2732 121.665 10.2532 121.682 10.2365L122.744 9.01413C122.758 8.99635 122.776 8.982 122.796 8.97214C122.817 8.96228 122.839 8.95716 122.862 8.95716C122.885 8.95716 122.907 8.96228 122.928 8.97214C122.948 8.982 122.966 8.99635 122.98 9.01413C123.865 9.76655 124.976 10.2003 126.136 10.246C127.519 10.246 128.315 9.54477 128.315 8.56876C128.315 7.7349 127.804 7.1853 126.202 6.96736L125.586 6.88208C123.359 6.56938 122.09 5.49861 122.09 3.56556C122.09 1.47141 123.625 0.0689955 126.013 0.0689955C127.368 0.043509 128.696 0.451883 129.803 1.23452C129.821 1.24872 129.835 1.26674 129.845 1.28724C129.855 1.30775 129.86 1.33021 129.86 1.35296C129.86 1.37572 129.855 1.39818 129.845 1.41868C129.835 1.43919 129.821 1.45721 129.803 1.47141L128.95 2.72221C128.923 2.76035 128.883 2.78724 128.838 2.79773C128.792 2.80822 128.745 2.80158 128.704 2.77907C127.898 2.18538 126.928 1.8545 125.927 1.83149C124.752 1.83149 124.099 2.48532 124.099 3.38552C124.099 4.28572 124.667 4.73108 126.231 4.9585L126.847 5.04378C129.083 5.347 130.315 6.40829 130.315 8.3982C130.315 10.3881 128.827 11.999 125.946 11.999C124.391 12.0208 122.879 11.4865 121.682 10.4923V10.4923Z"
    fill="currentColor"
  />
  <path
    d="M7.53152 4.31165C8.12005 3.72232 8.7771 3.20852 9.48806 2.78167C10.6091 2.32001 11.8026 2.06788 13.0115 2.03735L10.3243 3.69138L8.94412 5.68449C9.13689 6.29874 9.4582 6.86306 9.88586 7.33852C10.4178 7.74074 11.0665 7.95032 11.7287 7.93397C11.3822 8.13927 11.0653 8.39255 10.787 8.68656C10.6502 8.86585 10.5382 9.06342 10.4542 9.27374L9.54489 7.82646L7.66141 6.84231L5.51003 8.32267L4 10.6466C4.10448 9.68944 4.30025 8.74494 4.58453 7.82646C5.05798 6.83544 5.73001 5.95646 6.55731 5.24617L6.2001 4.2703L5.31519 3.63349C5.79944 3.5937 6.28683 3.62996 6.76027 3.74101C7.0398 3.89756 7.29892 4.08927 7.53152 4.31165V4.31165Z"
    fill="#03A79D"
  />
  <path
    d="M4.93601 3.18401C5.76269 2.35772 6.68399 1.63578 7.68004 1.03377C9.32808 0.107512 12.6242 0 12.6242 0L8.83285 2.22467L6.92502 5.03653C7.19273 5.90411 7.64137 6.70249 8.24021 7.37698C8.99052 7.92941 9.89623 8.21955 10.8219 8.204C10.337 8.48947 9.89192 8.83995 9.49856 9.24604C9.30821 9.49906 9.15254 9.77728 9.03581 10.0731L7.76934 8.01378L5.13085 6.68229L2.10267 8.74983L0 12C0.145406 10.6696 0.417296 9.35678 0.811843 8.07994C1.47876 6.69044 2.42142 5.45701 3.58023 4.45762L3.07688 3.09304L1.83476 2.22467C2.51479 2.16699 3.19948 2.21721 3.86437 2.37354C4.25358 2.59677 4.61363 2.86908 4.93601 3.18401V3.18401Z"
    fill="currentColor"
  />
</svg>