<svg width="25" height="24" viewBox="0 0 25 24" fill="none" xmlns="http://www.w3.org/2000/svg">
<path d="M24.1661 7.50778C24.1661 7.22111 24.1661 6.93444 24.165 6.64778C24.1639 6.40667 24.1606 6.16444 24.1539 5.92333C24.1395 5.39778 24.1083 4.86667 24.015 4.34667C23.9206 3.81889 23.765 3.32778 23.5206 2.84778C23.2806 2.37667 22.9672 1.94556 22.5939 1.57111C22.2195 1.19778 21.7895 0.884444 21.3172 0.644444C20.8383 0.4 20.3472 0.245556 19.8195 0.151111C19.2995 0.0577778 18.7683 0.0266667 18.2428 0.0122222C18.0017 0.00555556 17.7595 0.00333333 17.5183 0.00111111C17.2317 0 16.945 0 16.6583 0H7.6739C7.38723 0 7.10057 0 6.8139 0.00111111C6.57279 0.00222222 6.33057 0.00555556 6.08946 0.0122222C5.5639 0.0266667 5.03279 0.0577778 4.51279 0.151111C3.98501 0.245556 3.4939 0.401111 3.01501 0.644444C2.5439 0.884444 2.11168 1.19778 1.73834 1.57111C1.3639 1.94556 1.05168 2.37556 0.811678 2.84778C0.567234 3.32778 0.412789 3.81889 0.317234 4.34667C0.2239 4.86667 0.192789 5.39778 0.179456 5.92333C0.172789 6.16444 0.169456 6.40667 0.168345 6.64778C0.166122 6.93444 0.166122 7.22111 0.166122 7.50778V16.4922C0.166122 16.7789 0.166122 17.0656 0.168345 17.3522C0.169456 17.5933 0.172789 17.8356 0.179456 18.0767C0.1939 18.6022 0.225011 19.1333 0.318345 19.6533C0.412789 20.1811 0.568345 20.6733 0.812789 21.1522C1.05279 21.6233 1.36612 22.0544 1.73946 22.4278C2.11279 22.8022 2.5439 23.1156 3.01612 23.3556C3.49501 23.6 3.98612 23.7544 4.5139 23.8489C5.0339 23.9422 5.56501 23.9733 6.09057 23.9878C6.33168 23.9944 6.5739 23.9967 6.81501 23.9989C7.10168 24 7.38834 24 7.67501 24H16.6595C16.9461 24 17.2328 24 17.5195 23.9989C17.7606 23.9978 18.0028 23.9944 18.2439 23.9878C18.7695 23.9733 19.3006 23.9422 19.8206 23.8489C20.3483 23.7544 20.8395 23.5989 21.3183 23.3556C21.7895 23.1156 22.2206 22.8022 22.595 22.4278C22.9695 22.0544 23.2817 21.6233 23.5217 21.1522C23.7661 20.6722 23.9206 20.1811 24.0161 19.6533C24.1095 19.1333 24.1406 18.6033 24.155 18.0767C24.1617 17.8356 24.1639 17.5933 24.1661 17.3522C24.1672 17.0656 24.1672 16.7789 24.1672 16.4922V7.50778H24.1661Z" fill="white"/>
<path d="M9.1239 19.6345V8.4689H8.65501L5.81056 10.3522V10.8289L8.62278 8.98779H8.65612V19.6356H9.1239V19.6345Z" fill="black"/>
<path d="M11.9028 8.4689V8.89668H18.0361V8.93001L13.1106 19.6356H13.6372L18.5217 8.92112V8.4689H11.9028Z" fill="black"/>
<path d="M4.52724 6.27889V3.86445H4.53613L5.49057 6.03223H5.80724L6.75835 3.86445H6.76946V6.27889H7.08613V3.08112H6.75057L5.65502 5.64334H5.64613L4.54724 3.08223H4.21169V6.27889H4.52724Z" fill="#FF0000"/>
<path d="M8.80723 3.78445C8.13945 3.78445 7.76834 4.27001 7.76834 4.92779V5.1689C7.76834 5.83001 8.13612 6.31779 8.80723 6.31779C9.47723 6.31779 9.84279 5.83001 9.84279 5.1689V4.92779C9.8439 4.27001 9.47279 3.78445 8.80723 3.78445ZM8.80723 4.08668C9.24279 4.08668 9.49834 4.41223 9.49834 4.94445V5.15112C9.49834 5.68557 9.24279 6.01112 8.80723 6.01112C8.36834 6.01112 8.1139 5.68334 8.1139 5.15112V4.94445C8.1139 4.41334 8.36945 4.08668 8.80723 4.08668Z" fill="#FF0000"/>
<path d="M10.4883 6.27889H10.8328V4.77556C10.8328 4.42445 11.025 4.1 11.475 4.1C11.8595 4.1 12.1061 4.33223 12.1061 4.75112V6.27667H12.4506V4.69889C12.4506 4.10334 12.0728 3.78223 11.5672 3.78223C11.1639 3.78223 10.9339 3.99334 10.8428 4.15778H10.8328V3.82223H10.4883V6.27889Z" fill="#FF0000"/>
<path d="M14.0361 3.78223C13.4261 3.78223 13.0539 4.25778 13.0539 4.92334V5.17445C13.0539 5.85223 13.3983 6.31556 14.0361 6.31556C14.3883 6.31556 14.6406 6.13778 14.7717 5.89556H14.7806V6.27778H15.1061V2.91H14.7617V4.17556H14.7528C14.6339 3.96334 14.3806 3.78223 14.0361 3.78223ZM14.0672 4.09C14.5028 4.09 14.7706 4.43223 14.7706 4.93889V5.16667C14.7706 5.69445 14.5106 6.01 14.0717 6.01C13.6828 6.01 13.3994 5.72667 13.3994 5.16445V4.94223C13.3983 4.36889 13.6872 4.09 14.0672 4.09Z" fill="#FF0000"/>
<path d="M17.2383 5.96001H17.2472V6.2789H17.5828V4.57223C17.5828 4.06779 17.2128 3.78445 16.7017 3.78445C16.1328 3.78445 15.8395 4.08223 15.8106 4.5089H16.1361C16.1639 4.2489 16.3495 4.08223 16.6872 4.08223C17.0361 4.08223 17.2383 4.26779 17.2383 4.61223V4.87668H16.5706C16.0106 4.8789 15.715 5.15112 15.715 5.57557C15.715 6.02557 16.0406 6.3189 16.5172 6.3189C16.8917 6.31779 17.1206 6.15668 17.2383 5.96001ZM16.5983 6.02112C16.3217 6.02112 16.0706 5.87334 16.0706 5.5689C16.0706 5.33001 16.2228 5.1589 16.5817 5.1589H17.2383V5.46112C17.2383 5.79112 16.9639 6.02112 16.5983 6.02112Z" fill="#FF0000"/>
<path d="M20.1206 3.82443H19.7528L19.0517 5.87777H19.0395L18.3384 3.82443H17.955L18.8717 6.31777L18.825 6.46777C18.7528 6.7211 18.6284 6.86888 18.3395 6.86888C18.2861 6.86888 18.1984 6.86221 18.1595 6.85443V7.14777C18.2206 7.15665 18.3117 7.16665 18.3939 7.16665C18.8717 7.16665 19.0361 6.83888 19.165 6.48443L19.235 6.3011L20.1206 3.82443Z" fill="#FF0000"/>
</svg>
