<svg width="25" height="24" viewBox="0 0 25 24" fill="none" xmlns="http://www.w3.org/2000/svg">
<path d="M23.0567 0H2.60521C1.62553 0 0.833344 0.773438 0.833344 1.72969V22.2656C0.833344 23.2219 1.62553 24 2.60521 24H23.0567C24.0364 24 24.8333 23.2219 24.8333 22.2703V1.72969C24.8333 0.773438 24.0364 0 23.0567 0ZM7.95365 20.4516H4.39115V8.99531H7.95365V20.4516ZM6.1724 7.43438C5.02865 7.43438 4.10522 6.51094 4.10522 5.37187C4.10522 4.23281 5.02865 3.30937 6.1724 3.30937C7.31147 3.30937 8.2349 4.23281 8.2349 5.37187C8.2349 6.50625 7.31147 7.43438 6.1724 7.43438ZM21.2849 20.4516H17.727V14.8828C17.727 13.5562 17.7036 11.8453 15.8755 11.8453C14.0239 11.8453 13.7427 13.2937 13.7427 14.7891V20.4516H10.1896V8.99531H13.602V10.5609H13.6489C14.1224 9.66094 15.2849 8.70938 17.0146 8.70938C20.6192 8.70938 21.2849 11.0813 21.2849 14.1656V20.4516Z" fill="#FCFCFC"/>
</svg>
