<svg width="39" height="24" viewBox="0 0 39 24" fill="none" xmlns="http://www.w3.org/2000/svg">
<path d="M3.15433 0C2.85458 0 2.5722 0.0517057 2.30494 0.158025L7.65803 5.66914L13.0704 11.279L13.1691 11.3975L13.3272 11.5556L13.4852 11.7136L13.8012 12.0494L18.4432 16.8099C18.5205 16.8579 18.7445 17.0654 18.9195 17.1529C19.1449 17.2655 19.3892 17.3694 19.641 17.3784C19.9127 17.3881 20.1905 17.3102 20.435 17.1913C20.6182 17.1022 20.6996 16.9745 20.9124 16.8099L26.2852 11.2593L31.7173 5.66914L36.9519 0.276543C36.6158 0.0944608 36.2436 0 35.8457 0H3.15433ZM1.51482 0.671605C0.943963 1.2125 0.586426 2.02567 0.586426 2.94321V21.037C0.586426 21.78 0.825042 22.4549 1.21852 22.9728L1.96914 22.2617L7.55927 16.8296L12.5173 12.0296L12.4185 11.9111L6.98643 6.32099L1.55433 0.711111L1.51482 0.671605ZM37.663 0.849383L32.3691 6.32099L26.9568 11.9111L26.858 12.0099L32.0136 17.0074L37.6037 22.4395L37.9395 22.7556C38.2405 22.2726 38.4136 21.6777 38.4136 21.037V2.94321C38.4136 2.1251 38.1301 1.38322 37.663 0.849383ZM13.1494 12.6815L8.21112 17.4815L2.60124 22.9136L1.89013 23.6049C2.26502 23.8464 2.69166 24 3.15433 24H35.8457C36.4019 24 36.9064 23.786 37.3272 23.4469L36.9716 23.0914L31.3617 17.6593L26.2062 12.6815L21.5642 17.4617C21.313 17.6283 21.1451 17.813 20.8998 17.9265C20.5049 18.109 20.0722 18.2635 19.6373 18.2568C19.2012 18.2501 18.7736 18.0795 18.3822 17.887C18.1858 17.7903 18.0811 17.6943 17.8506 17.5012L13.1494 12.6815Z" fill="white"/>
</svg>
