<svg width="120" height="83" viewBox="0 0 120 83" fill="none" xmlns="http://www.w3.org/2000/svg">
<path d="M78.4458 54.0753L54.0303 11.6431L71.5705 1.5683L101.931 54.0753H78.4458Z" fill="#7E7E7E"/>
<path d="M13.4135 48.1302L30.9536 37.9874L40.2342 54.0753H16.8171L13.4135 48.1302Z" fill="#7E7E7E"/>
<path d="M47.8357 81.1456H52.8277V60.9507H47.8357V81.1456Z" fill="#7E7E7E"/>
<path d="M110.395 81.6221C104.813 81.6221 101.454 78.7404 101.273 74.6787H106.537C106.537 75.9494 107.331 77.81 110.735 77.8781C113.004 77.8781 114.071 76.5393 114.071 75.5409C113.935 73.9526 111.938 73.8164 109.805 73.4761C107.672 73.1357 105.857 72.7499 104.54 72.0692C102.861 71.207 101.727 69.3463 101.727 67.2134C101.727 63.6055 104.858 60.7464 110.077 60.7464C115.137 60.7464 118.337 63.4013 118.677 67.3495H113.594C113.549 66.283 113.345 64.6039 110.349 64.6039C108.33 64.6039 106.991 65.0123 106.878 66.4192C106.878 68.484 111.075 68.3479 114.343 69.2101C117.474 70.0043 119.471 71.9558 119.471 74.6787C119.471 79.6934 115.409 81.6221 110.395 81.6221Z" fill="#7E7E7E"/>
<path d="M33.9715 30.1136L51.5116 19.9934L71.1847 54.0753H52.8277V59.0673H47.8357V54.0526L33.9715 30.1136Z" fill="#7E7E7E"/>
<path d="M34.4253 81.6221C28.6164 81.6221 23.8967 76.8797 23.8967 71.1389C23.8967 65.33 28.6164 60.7464 34.4253 60.7464C36.6263 60.7464 38.6231 61.3364 40.3703 62.539V54.0753H45.3624V81.1456H40.3703V79.8068C38.6231 80.9414 36.6263 81.6221 34.4253 81.6221ZM28.6845 71.1389C28.6845 74.2702 31.362 76.8797 34.5614 76.8797C37.6928 76.8797 40.3703 74.2702 40.3703 71.1389C40.3703 68.0075 37.6928 65.33 34.5614 65.33C31.362 65.33 28.6845 68.0075 28.6845 71.1389Z" fill="#7E7E7E"/>
<path d="M71.3209 54.0753H76.2448V81.1456H71.3209V79.8068C69.6417 80.9414 67.5768 81.6221 65.3077 81.6221C59.5669 81.6221 54.8472 76.8797 54.8472 71.1389C54.8472 65.33 59.5669 60.7464 65.3077 60.7464C67.5768 60.7464 69.5736 61.3364 71.3209 62.539V54.0753ZM59.7031 71.1389C59.7031 74.2702 62.3806 76.8797 65.4439 76.8797C68.6433 76.8797 71.3209 74.2702 71.3209 71.1389C71.3209 68.0075 68.6433 65.33 65.4439 65.33C62.3806 65.33 59.7031 68.0075 59.7031 71.1389Z" fill="#7E7E7E"/>
<path d="M88.3845 81.6221C82.6664 81.6221 77.9239 76.8797 77.9239 71.1389C77.9239 65.33 82.6664 60.7464 88.3845 60.7464C90.5855 60.7464 92.6504 61.3364 94.3295 62.539V60.928H99.3215V81.1456H94.3295V79.8069C92.6504 80.9414 90.6536 81.6221 88.3845 81.6221ZM82.7798 71.1389C82.7798 74.2702 85.4573 76.8797 88.5887 76.8797C91.7201 76.8797 94.3295 74.2702 94.3295 71.1389C94.3295 68.0075 91.7201 65.33 88.5887 65.33C85.4573 65.33 82.7798 68.0075 82.7798 71.1389Z" fill="#7E7E7E"/>
<path d="M5.53968 71.1389C5.53968 74.2702 8.21721 76.8797 11.3486 76.8797C14.548 76.8797 17.2255 74.2702 17.2255 71.1389C17.2255 68.0075 14.548 65.33 11.3486 65.33C8.21721 65.33 5.53968 68.0075 5.53968 71.1389ZM11.2124 81.6221C5.4716 81.6221 0.729187 76.8797 0.729187 71.1389C0.729187 65.33 5.4716 60.7464 11.2124 60.7464C13.4134 60.7464 15.4783 61.3364 17.2255 62.539V60.928H22.1495V81.1456H17.2255V79.8069C15.5464 80.9414 13.4815 81.6221 11.2124 81.6221Z" fill="#7E7E7E"/>
</svg>
