<svg width="120" height="35" viewBox="0 0 120 35" fill="none" xmlns="http://www.w3.org/2000/svg">
<g clip-path="url(#clip0_29_94)">
<path d="M9.64286 7.5H16.8857C19.0179 7.5 20.6786 7.92643 21.8357 8.78143C23.0057 9.63643 23.5929 10.8621 23.5929 12.4671C23.5929 13.3843 23.3831 14.1793 22.9629 14.8457C22.5429 15.5207 21.9236 16.0543 21.1007 16.4507C22.2364 16.8279 23.1064 17.4257 23.715 18.2443C24.3193 19.0629 24.6193 20.0571 24.6193 21.2229C24.6193 22.3736 24.3257 23.3636 23.7407 24.18C23.1557 25.0071 22.32 25.6457 21.2336 26.0957C20.1493 26.5457 18.855 26.7707 17.3336 26.7707H9.64071L9.64286 7.5ZM0 34.2857H34.2857V0H0V34.2857ZM16.5214 10.7143C18.6021 10.7143 19.65 11.4793 19.65 13.0071C19.65 13.7979 19.3843 14.415 18.8507 14.8543C18.3171 15.2957 17.5436 15.5143 16.5364 15.5143H13.5793V10.7143H16.5214ZM17.0186 18.5357H13.5471V23.7429H16.9543C18.1243 23.7429 19.0264 23.5221 19.6543 23.0829C20.2843 22.6414 20.5993 22.0093 20.5993 21.1821C20.5993 19.4207 19.4014 18.5464 16.9993 18.5464L17.0186 18.5357Z" fill="#7E7E7E"/>
<path d="M52.5 7.5H59.7429C61.875 7.5 63.5357 7.92643 64.6929 8.78143C65.8629 9.63643 66.45 10.8621 66.45 12.4671C66.45 13.3843 66.2402 14.1793 65.82 14.8457C65.4 15.5207 64.7786 16.0543 63.9579 16.4507C65.0936 16.8279 65.9636 17.4257 66.5721 18.2443C67.1764 19.0629 67.4764 20.0571 67.4764 21.2229C67.4764 22.3736 67.1829 23.3636 66.5979 24.18C66.0129 25.0071 65.1771 25.6457 64.0907 26.0957C63.0064 26.5457 61.7121 26.7707 60.1907 26.7707H52.4979L52.5 7.5ZM42.8571 34.2857H77.1429V0H42.8571V34.2857ZM59.3786 10.7143C61.4593 10.7143 62.5071 11.4793 62.5071 13.0071C62.5071 13.7979 62.2414 14.415 61.7079 14.8543C61.1743 15.2957 60.4007 15.5143 59.3936 15.5143H56.4364V10.7143H59.3786ZM59.8757 18.5357H56.4043V23.7429H59.8114C60.9814 23.7429 61.8836 23.5221 62.5114 23.0829C63.1414 22.6414 63.4564 22.0093 63.4564 21.1821C63.4564 19.4207 62.2586 18.5464 59.8564 18.5464L59.8757 18.5357Z" fill="#7E7E7E"/>
<path d="M107.571 26.5714C108.624 26.3164 109.549 25.9671 110.357 25.5278V21.8636C108.671 22.9029 106.821 23.4236 104.829 23.4236C103.521 23.4236 102.407 23.1771 101.486 22.6843C100.569 22.1914 99.87 21.4736 99.39 20.52C98.9079 19.5771 98.6679 18.435 98.6679 17.0914C98.6679 15.7521 98.9164 14.6057 99.4157 13.6843C99.915 12.75 100.631 12.0364 101.559 11.5436C102.493 11.0507 103.622 10.8043 104.944 10.8043C105.906 10.8043 106.824 10.9324 107.687 11.1879C108.557 11.4429 109.365 11.8179 110.109 12.3107V8.56071C109.292 8.13857 108.407 7.81714 107.451 7.59642C106.498 7.37571 105.486 7.26642 104.409 7.26642C102.866 7.26642 101.473 7.49571 100.23 7.95428C98.9871 8.41285 97.9157 9.07285 97.0372 9.93642C96.1479 10.8 95.4664 11.835 94.995 13.0436C94.5236 14.25 94.2879 15.5936 94.2879 17.0936C94.2879 18.6278 94.515 20.0079 94.9693 21.2293C95.4236 22.455 96.075 23.4793 96.93 24.3364C97.7829 25.1829 98.8264 25.83 100.059 26.28C101.293 26.73 102.673 26.955 104.216 26.955C105.377 26.955 106.487 26.8269 107.537 26.5714H107.571ZM120 34.2429H85.7143V-0.0428619H120V34.2429Z" fill="#7E7E7E"/>
</g>
<defs>
<clipPath id="clip0_29_94">
<rect width="120" height="34.2857" fill="white"/>
</clipPath>
</defs>
</svg>
