<svg width="120" height="160" viewBox="0 0 120 160" fill="none" xmlns="http://www.w3.org/2000/svg">
<g clip-path="url(#clip0_34_138)">
<path d="M92.5291 18.582C92.5291 22.0529 91.3016 26.8783 86.3915 26.8783C80.4656 26.8783 80.4656 20.2328 80.4656 18.836C80.4656 17.4392 80.4656 10.328 86.5609 10.328C92.1058 10.328 92.5291 16.4656 92.5291 18.582ZM80.5079 0H76.5291V25.6085L76.4445 29.418H80.2963L80.381 26.2011C80.9038 27.0655 81.6122 27.8028 82.455 28.3598C83.8641 29.2757 85.5156 29.7476 87.1958 29.7143C88.6441 29.747 90.0793 29.4338 91.3823 28.8007C92.6853 28.1676 93.8185 27.2329 94.6878 26.0741C95.746 24.6772 96.7196 22.4339 96.7196 18.2857C96.7196 13.6296 95.2804 11.5132 94.2222 10.2857C92.2751 8.08466 89.6085 7.57672 87.4497 7.57672C82.6244 7.57672 81.0582 10.2434 80.5079 11.2169V0Z" fill="#7E7E7E"/>
<path d="M103.619 19.4286C103.619 17.5238 103.619 10.7513 109.968 10.7513C114.667 10.7513 115.81 14.7302 115.81 18.582C115.81 20.1058 115.598 23.1534 114.074 25.2275C112.72 27.0899 110.603 27.3016 109.587 27.3016C104 27.3439 103.619 22.0529 103.619 19.4286ZM99.7672 37.672H103.704V27.0899C104.847 28.9524 107.132 30.2646 110.222 30.2646C115.302 30.2646 119.915 26.7937 119.915 18.836C119.915 10.8783 115.556 7.78836 110.984 7.78836C109.249 7.78836 105.735 8.2963 103.704 11.6402L103.619 8.12699H99.5979C99.6826 10.1587 99.7249 10.6667 99.7249 11.5979V37.672H99.7672Z" fill="#7E7E7E"/>
<path fill-rule="evenodd" clip-rule="evenodd" d="M68.1481 52.3598C65.9272 47.2009 63.1902 42.2799 59.9788 37.672C56.7866 42.2919 54.0506 47.2109 51.8095 52.3598C54.9812 55.7195 57.7252 59.4586 59.9788 63.4921C62.2112 59.445 64.9571 55.7033 68.1481 52.3598Z" fill="#7E7E7E"/>
<path fill-rule="evenodd" clip-rule="evenodd" d="M51.8519 144.762C54.0728 149.921 56.8098 154.842 60.0212 159.45C61.4603 157.249 65.1852 151.831 68.1905 144.762C65.0319 141.391 62.2892 137.654 60.0212 133.63C57.7531 137.654 55.0104 141.391 51.8519 144.762Z" fill="#7E7E7E"/>
<path fill-rule="evenodd" clip-rule="evenodd" d="M51.8519 52.3598C47.9774 48.2845 43.7256 44.5854 39.1535 41.3122C37.7305 46.7423 36.8514 52.3005 36.5291 57.9048C40.6545 59.9749 44.5075 62.5483 48 65.5661C48.7217 61.0192 50.016 56.5818 51.8519 52.3598Z" fill="#7E7E7E"/>
<path fill-rule="evenodd" clip-rule="evenodd" d="M68.1481 144.762C72.0127 148.847 76.2655 152.547 80.8465 155.81C82.2656 150.379 83.1447 144.821 83.4709 139.217C79.3545 137.131 75.5033 134.559 72 131.556C71.2525 136.097 69.9592 140.531 68.1481 144.762Z" fill="#7E7E7E"/>
<path fill-rule="evenodd" clip-rule="evenodd" d="M36.5291 57.9048C31.5082 55.3823 26.2474 53.3687 20.8254 51.8942C21.3546 57.4889 22.4321 63.0181 24.0423 68.4021C28.6189 68.9287 33.1121 70.0235 37.418 71.6614C36.5656 67.1288 36.2671 62.5094 36.5291 57.9048Z" fill="#7E7E7E"/>
<path fill-rule="evenodd" clip-rule="evenodd" d="M83.4286 139.217C88.4495 141.739 93.7103 143.753 99.1323 145.228C98.603 139.633 97.5255 134.104 95.9153 128.72C91.3372 128.178 86.8442 127.069 82.5397 125.418C83.4328 129.96 83.7316 134.598 83.4286 139.217Z" fill="#7E7E7E"/>
<path fill-rule="evenodd" clip-rule="evenodd" d="M29.5873 81.0159C27.2312 77.0533 25.369 72.8172 24.0423 68.4021C18.4645 67.7485 12.8355 67.6493 7.2381 68.1058C9.65805 73.1635 12.5491 77.982 15.873 82.4974C20.3641 81.4296 24.9718 80.9318 29.5873 81.0159Z" fill="#7E7E7E"/>
<path fill-rule="evenodd" clip-rule="evenodd" d="M90.3704 116.106C92.7439 120.059 94.6071 124.298 95.9153 128.72C101.493 129.373 107.122 129.472 112.72 129.016C110.29 123.941 107.385 119.108 104.042 114.582C99.5683 115.669 94.9739 116.181 90.3704 116.106Z" fill="#7E7E7E"/>
<path fill-rule="evenodd" clip-rule="evenodd" d="M15.873 82.4974C10.4207 83.8096 5.10573 85.638 0 87.9577C4.00755 91.8994 8.38783 95.4433 13.0794 98.5397C16.9282 95.999 21.0805 93.9513 25.4392 92.4444C21.8593 89.5284 18.6471 86.1883 15.873 82.4974Z" fill="#7E7E7E"/>
<path fill-rule="evenodd" clip-rule="evenodd" d="M106.921 98.5397C103.072 101.08 98.9195 103.128 94.5609 104.635C98.1382 107.54 101.338 110.882 104.085 114.582C109.541 113.285 114.858 111.456 119.958 109.122C115.977 105.167 111.61 101.621 106.921 98.5397Z" fill="#7E7E7E"/>
<path fill-rule="evenodd" clip-rule="evenodd" d="M25.4392 104.635C21.0805 103.128 16.9282 101.08 13.0794 98.5397C8.38783 101.636 4.00755 105.18 0 109.122C5.09797 111.461 10.4149 113.29 15.873 114.582C18.6582 110.901 21.8693 107.562 25.4392 104.635Z" fill="#7E7E7E"/>
<path fill-rule="evenodd" clip-rule="evenodd" d="M94.5609 92.4444C98.9159 93.96 103.067 96.0072 106.921 98.5397C111.612 95.4433 115.992 91.8994 120 87.9577C114.902 85.6185 109.585 83.7895 104.127 82.4974C101.353 86.1883 98.1407 89.5284 94.5609 92.4444Z" fill="#7E7E7E"/>
<path fill-rule="evenodd" clip-rule="evenodd" d="M15.873 114.624C12.5138 119.131 9.62065 123.967 7.2381 129.058C12.8362 129.492 18.463 129.393 24.0423 128.762C25.369 124.347 27.2312 120.111 29.5873 116.148C24.9721 116.177 20.3694 115.665 15.873 114.624Z" fill="#7E7E7E"/>
<path fill-rule="evenodd" clip-rule="evenodd" d="M104.085 82.4974C107.437 77.9776 110.342 73.1438 112.762 68.0635C107.164 67.6294 101.537 67.7286 95.9577 68.3598C94.631 72.7749 92.7688 77.011 90.4127 80.9735C95.015 80.924 99.6062 81.4357 104.085 82.4974Z" fill="#7E7E7E"/>
<path fill-rule="evenodd" clip-rule="evenodd" d="M37.418 125.418C33.1073 127.049 28.6167 128.157 24.0423 128.72C22.4321 134.104 21.3546 139.633 20.8254 145.228C26.2474 143.753 31.5082 141.739 36.5291 139.217C36.2684 134.598 36.5669 129.965 37.418 125.418Z" fill="#7E7E7E"/>
<path fill-rule="evenodd" clip-rule="evenodd" d="M82.5397 71.6614C86.8455 70.0235 91.3387 68.9287 95.9153 68.4021C97.5255 63.0181 98.603 57.4889 99.1323 51.8942C93.7103 53.3687 88.4495 55.3823 83.4286 57.9048C83.7316 62.5094 83.4327 67.134 82.5397 71.6614Z" fill="#7E7E7E"/>
<path fill-rule="evenodd" clip-rule="evenodd" d="M36.5291 139.217C36.8514 144.821 37.7305 150.379 39.1535 155.81C43.7363 152.55 47.9893 148.85 51.8519 144.762C50.016 140.525 48.7218 136.074 48 131.513C44.5082 134.544 40.6554 137.131 36.5291 139.217Z" fill="#7E7E7E"/>
<path fill-rule="evenodd" clip-rule="evenodd" d="M83.4286 57.9048C83.1063 52.3005 82.2272 46.7423 80.8042 41.3122C76.2214 44.572 71.9684 48.2721 68.1058 52.3598C69.9169 56.5907 71.2102 61.025 71.9577 65.5661C75.4681 62.5719 79.3181 60.0005 83.4286 57.9048Z" fill="#7E7E7E"/>
<path fill-rule="evenodd" clip-rule="evenodd" d="M55.7883 74.8783C56.5699 70.8706 57.9844 67.0128 59.9788 63.4497C57.7251 59.4163 54.9812 55.6772 51.8095 52.3175C49.9792 56.5415 48.6852 60.9781 47.9576 65.5238C51.0423 68.2121 53.6848 71.3688 55.7883 74.8783Z" fill="#9F9F9F"/>
<path fill-rule="evenodd" clip-rule="evenodd" d="M64.1693 122.243C63.3807 126.249 61.9665 130.106 59.9788 133.672C62.2181 137.715 64.9633 141.455 68.1481 144.804C69.9648 140.561 71.2583 136.112 72 131.556C68.9065 128.892 66.2624 125.748 64.1693 122.243Z" fill="#9F9F9F"/>
<path fill-rule="evenodd" clip-rule="evenodd" d="M37.418 71.6614C41.227 73.1135 44.7838 75.1561 47.9577 77.7143C47.3226 73.6898 47.3226 69.5906 47.9577 65.5661C44.4614 62.5532 40.6091 59.9802 36.4867 57.9048C36.2608 62.5109 36.5733 67.1277 37.418 71.6614Z" fill="#9F9F9F"/>
<path fill-rule="evenodd" clip-rule="evenodd" d="M82.5397 125.418C78.7306 123.966 75.1738 121.923 72 119.365C72.6424 123.39 72.6281 127.493 71.9576 131.513C75.4538 134.526 79.3062 137.099 83.4285 139.175C83.7302 134.57 83.4314 129.946 82.5397 125.418Z" fill="#9F9F9F"/>
<path fill-rule="evenodd" clip-rule="evenodd" d="M41.5662 83.0899C39.5903 79.5226 38.1903 75.6656 37.418 71.6614C33.1122 70.0235 28.619 68.9287 24.0424 68.4021C25.369 72.8172 27.2312 77.0533 29.5873 81.0159C33.6655 81.0621 37.7098 81.7624 41.5662 83.0899Z" fill="#9F9F9F"/>
<path fill-rule="evenodd" clip-rule="evenodd" d="M78.3915 114.032C80.3674 117.599 81.7674 121.456 82.5397 125.46C86.8504 127.091 91.3409 128.2 95.9154 128.762C94.5887 124.347 92.7265 120.111 90.3704 116.148C86.2948 116.038 82.258 115.325 78.3915 114.032Z" fill="#9F9F9F"/>
<path fill-rule="evenodd" clip-rule="evenodd" d="M25.4392 92.4444C29.2956 91.1119 33.3384 90.3976 37.418 90.328C34.3359 87.665 31.7057 84.5202 29.6296 81.0159C25.0151 80.9529 20.41 81.4504 15.9153 82.4974C18.6623 86.1976 21.8618 89.5393 25.4392 92.4444Z" fill="#9F9F9F"/>
<path fill-rule="evenodd" clip-rule="evenodd" d="M94.5609 104.635C90.7045 105.967 86.6616 106.682 82.582 106.751C85.6641 109.414 88.2943 112.559 90.3704 116.063C94.9878 116.136 99.5959 115.624 104.085 114.54C101.314 110.872 98.1171 107.547 94.5609 104.635Z" fill="#9F9F9F"/>
<path fill-rule="evenodd" clip-rule="evenodd" d="M35.9365 98.5397C32.1327 97.0849 28.5882 95.0268 25.4391 92.4444C21.0805 93.9513 16.9281 95.999 13.0793 98.5397C16.9281 101.08 21.0805 103.128 25.4391 104.635C28.5986 102.068 32.1406 100.011 35.9365 98.5397Z" fill="#9F9F9F"/>
<path fill-rule="evenodd" clip-rule="evenodd" d="M84.0212 98.5397C87.8334 100.004 91.3905 102.061 94.5609 104.635C98.9159 103.119 103.067 101.072 106.921 98.5397C103.072 95.999 98.9195 93.9513 94.5609 92.4444C91.407 95.0423 87.8459 97.1018 84.0212 98.5397Z" fill="#9F9F9F"/>
<path fill-rule="evenodd" clip-rule="evenodd" d="M29.5873 116.106C31.6767 112.611 34.3052 109.468 37.3756 106.794C33.2961 106.724 29.2532 106.01 25.3968 104.677C21.8194 107.582 18.6199 110.924 15.873 114.624C20.3676 115.671 24.9727 116.169 29.5873 116.106Z" fill="#9F9F9F"/>
<path fill-rule="evenodd" clip-rule="evenodd" d="M90.3704 81.0159C88.281 84.5108 85.6524 87.6536 82.582 90.328C86.6616 90.3976 90.7045 91.1119 94.5609 92.4444C98.1382 89.5393 101.338 86.1976 104.085 82.4974C99.594 81.4272 94.986 80.9295 90.3704 81.0159Z" fill="#9F9F9F"/>
<path fill-rule="evenodd" clip-rule="evenodd" d="M41.5662 114.032C37.7098 115.359 33.6655 116.06 29.5873 116.106C27.2312 120.068 25.369 124.304 24.0424 128.72C28.6205 128.178 33.1135 127.069 37.418 125.418C38.1976 121.429 39.5972 117.587 41.5662 114.032Z" fill="#9F9F9F"/>
<path fill-rule="evenodd" clip-rule="evenodd" d="M78.3915 83.0899C82.2479 81.7624 86.2922 81.0621 90.3704 81.0159C92.7439 77.0623 94.6071 72.824 95.9154 68.4021C91.3387 68.9287 86.8455 70.0235 82.5397 71.6614C81.7867 75.6709 80.3856 79.5309 78.3915 83.0899Z" fill="#9F9F9F"/>
<path fill-rule="evenodd" clip-rule="evenodd" d="M55.7883 122.243C53.6952 125.748 51.0511 128.892 47.9576 131.556C48.6853 136.115 49.9792 140.566 51.8095 144.804C54.9812 141.445 57.7251 137.705 59.9788 133.672C58.0092 130.098 56.5962 126.244 55.7883 122.243Z" fill="#9F9F9F"/>
<path fill-rule="evenodd" clip-rule="evenodd" d="M47.9577 119.407C44.7898 121.974 41.2316 124.018 37.418 125.46C36.5459 129.99 36.2473 134.612 36.5291 139.217C40.6455 137.131 44.4967 134.559 48 131.556C47.3295 127.535 47.3152 123.432 47.9577 119.407Z" fill="#9F9F9F"/>
<path fill-rule="evenodd" clip-rule="evenodd" d="M64.1693 74.8783C66.2755 71.3831 68.918 68.2407 72 65.5661C71.2783 61.0192 69.984 56.5818 68.1481 52.3598C64.9896 55.7304 62.2469 59.4679 59.9788 63.4921C61.9797 67.037 63.3948 70.882 64.1693 74.8783Z" fill="#9F9F9F"/>
<path fill-rule="evenodd" clip-rule="evenodd" d="M72 77.7143C75.1619 75.1387 78.7216 73.0944 82.5397 71.6614C83.4117 67.1313 83.7103 62.5094 83.4285 57.9048C79.3121 59.9904 75.4609 62.5626 71.9576 65.5661C72.6281 69.5866 72.6424 73.6892 72 77.7143Z" fill="#9F9F9F"/>
<path fill-rule="evenodd" clip-rule="evenodd" d="M55.8307 87.1534C53.8364 83.5431 51.163 80.3523 47.9577 77.7566C48.6371 81.8187 50.0575 85.7214 52.1482 89.2698C49.0345 86.5818 45.4454 84.5002 41.5662 83.1323C43.5863 86.7248 46.2558 89.9111 49.4392 92.5291C45.5904 91.0544 41.4971 90.3219 37.3757 90.3704C40.5008 93.0543 44.1057 95.1224 48 96.4656C43.8811 96.4011 39.7875 97.1193 35.9365 98.582C39.795 100.017 43.8834 100.735 48 100.698C44.1057 102.042 40.5008 104.11 37.3757 106.794C41.4971 106.842 45.5904 106.11 49.4392 104.635C46.2463 107.243 43.5751 110.431 41.5662 114.032C45.4421 112.657 49.0299 110.576 52.1482 107.894C50.0394 111.434 48.6177 115.34 47.9577 119.407C51.1323 116.781 53.8004 113.596 55.8307 110.011C55.0682 114.067 55.0682 118.23 55.8307 122.286C57.9264 118.74 59.3472 114.836 60.0212 110.772C60.6881 114.838 62.1094 118.743 64.2117 122.286C64.9742 118.23 64.9742 114.067 64.2117 110.011C66.2307 113.604 68.9004 116.79 72.0847 119.407C71.409 115.338 69.9731 111.432 67.8519 107.894C70.9806 110.583 74.5837 112.665 78.4762 114.032C76.4672 110.431 73.796 107.243 70.6032 104.635C74.452 106.11 78.5453 106.842 82.6667 106.794C79.5333 104.111 75.9314 102.03 72.0423 100.656C76.1612 100.721 80.2549 100.002 84.1058 98.5397C80.2484 97.1008 76.1592 96.3834 72.0423 96.4233C75.9367 95.0801 79.5416 93.012 82.6667 90.328C78.5453 90.2796 74.452 91.0121 70.6032 92.4868C73.8084 89.8794 76.4937 86.6916 78.5185 83.0899C74.626 84.4569 71.0229 86.5384 67.8942 89.2275C70.0154 85.6895 71.4514 81.7837 72.127 77.7143C68.9524 80.3411 66.2843 83.5256 64.254 87.1111C65.0165 83.0549 65.0165 78.8922 64.254 74.836C62.1517 78.379 60.7304 82.2838 60.0635 86.3492C59.3966 82.2838 57.9753 78.379 55.873 74.836C55.0746 78.9016 55.0602 83.0824 55.8307 87.1534Z" fill="white"/>
<path fill-rule="evenodd" clip-rule="evenodd" d="M55.8307 87.1534C55.0681 83.0973 55.0681 78.9345 55.8307 74.8783C53.7376 71.3738 51.0935 68.2294 48 65.5661C47.3438 69.5889 47.3438 73.6915 48 77.7143C51.1602 80.3605 53.8135 83.5588 55.8307 87.1534Z" fill="#D9D9D9"/>
<path fill-rule="evenodd" clip-rule="evenodd" d="M64.127 109.968C64.8895 114.024 64.8895 118.187 64.127 122.243C66.2331 125.739 68.8756 128.881 71.9576 131.556C72.6072 127.533 72.6215 123.434 72 119.407C68.8149 116.775 66.1455 113.574 64.127 109.968Z" fill="#D9D9D9"/>
<path fill-rule="evenodd" clip-rule="evenodd" d="M47.9577 77.7143C44.7898 75.1474 41.2316 73.1039 37.418 71.6614C38.171 75.6709 39.572 79.5309 41.5661 83.0899C45.4498 84.4483 49.0406 86.5309 52.1481 89.2275C50.051 85.6821 48.6302 81.7782 47.9577 77.7143Z" fill="#D9D9D9"/>
<path fill-rule="evenodd" clip-rule="evenodd" d="M72 119.407C75.162 121.983 78.7216 124.027 82.5397 125.46C81.7867 121.451 80.3856 117.591 78.3915 114.032C74.5068 112.648 70.9066 110.568 67.7672 107.894C69.9132 111.42 71.351 115.331 72 119.407Z" fill="#D9D9D9"/>
<path fill-rule="evenodd" clip-rule="evenodd" d="M49.4815 92.4868C46.2886 89.8784 43.6174 86.6902 41.6085 83.0899C37.7522 81.7624 33.7078 81.0621 29.6296 81.0159C31.7191 84.5108 34.3476 87.6536 37.418 90.328C41.5391 90.2831 45.6317 91.0155 49.4815 92.4868Z" fill="#D9D9D9"/>
<path fill-rule="evenodd" clip-rule="evenodd" d="M70.5186 104.635C73.7114 107.243 76.3826 110.431 78.3916 114.032C82.2479 115.359 86.2922 116.06 90.3704 116.106C88.281 112.611 85.6524 109.468 82.582 106.794C78.4607 106.842 74.3674 106.11 70.5186 104.635Z" fill="#D9D9D9"/>
<path fill-rule="evenodd" clip-rule="evenodd" d="M48 96.4656C44.1057 95.1224 40.5008 93.0543 37.3757 90.3704C33.2961 90.4399 29.2532 91.1542 25.3969 92.4868C28.5518 95.0606 32.0949 97.1178 35.8942 98.582C39.7573 97.11 43.8666 96.3916 48 96.4656Z" fill="#D9D9D9"/>
<path fill-rule="evenodd" clip-rule="evenodd" d="M71.9576 100.656C75.8467 102.03 79.4486 104.111 82.582 106.794C86.6615 106.724 90.7044 106.01 94.5608 104.677C91.3965 102.094 87.838 100.037 84.0211 98.582C80.1674 100.03 76.0738 100.734 71.9576 100.656Z" fill="#D9D9D9"/>
<path fill-rule="evenodd" clip-rule="evenodd" d="M35.9365 98.5397C32.1327 99.9945 28.5882 102.053 25.4391 104.635C29.2955 105.967 33.3384 106.682 37.418 106.751C40.5431 104.067 44.148 101.999 48.0423 100.656C43.9084 100.738 39.7976 100.019 35.9365 98.5397Z" fill="#D9D9D9"/>
<path fill-rule="evenodd" clip-rule="evenodd" d="M84.0211 98.5397C87.8334 97.0756 91.3905 95.0185 94.5608 92.4444C90.7044 91.1119 86.6615 90.3976 82.582 90.328C79.4569 93.012 75.852 95.0801 71.9576 96.4233C76.0748 96.38 80.1646 97.0975 84.0211 98.5397Z" fill="#D9D9D9"/>
<path fill-rule="evenodd" clip-rule="evenodd" d="M49.4815 104.635C45.6327 106.11 41.5394 106.842 37.418 106.794C34.3359 109.457 31.7057 112.601 29.6296 116.106C33.7059 116.039 37.747 115.339 41.6085 114.032C43.5904 110.413 46.2656 107.22 49.4815 104.635Z" fill="#D9D9D9"/>
<path fill-rule="evenodd" clip-rule="evenodd" d="M70.5186 92.4868C74.3674 91.0121 78.4607 90.2796 82.582 90.328C85.6641 87.665 88.2943 84.5202 90.3704 81.0159C86.2941 81.0828 82.253 81.7825 78.3916 83.0899C76.3826 86.6902 73.7114 89.8784 70.5186 92.4868Z" fill="#D9D9D9"/>
<path fill-rule="evenodd" clip-rule="evenodd" d="M55.7883 122.243C56.577 126.249 57.9911 130.106 59.9788 133.672C61.9551 130.101 63.3685 126.246 64.1693 122.243C62.0736 118.697 60.6528 114.794 59.9788 110.73C59.3241 114.799 57.902 118.706 55.7883 122.243Z" fill="#D9D9D9"/>
<path fill-rule="evenodd" clip-rule="evenodd" d="M55.8307 109.968C53.825 113.571 51.1533 116.76 47.9576 119.365C47.3226 123.39 47.3226 127.489 47.9576 131.513C51.0397 128.839 53.6821 125.696 55.7883 122.201C55.0618 118.155 55.0761 114.01 55.8307 109.968Z" fill="#D9D9D9"/>
<path fill-rule="evenodd" clip-rule="evenodd" d="M41.5661 114.032C39.5902 117.599 38.1903 121.456 37.418 125.46C41.227 124.008 44.7838 121.966 47.9577 119.407C48.637 115.345 50.0575 111.443 52.1481 107.894C49.0299 110.576 45.4421 112.657 41.5661 114.032Z" fill="#D9D9D9"/>
<path fill-rule="evenodd" clip-rule="evenodd" d="M64.1693 74.8783C63.3877 70.8706 61.9732 67.0128 59.9788 63.4497C57.9959 67.018 56.582 70.8739 55.7883 74.8783C57.8906 78.4213 59.3119 82.3261 59.9788 86.3915C60.6457 82.3261 62.067 78.4213 64.1693 74.8783Z" fill="#D9D9D9"/>
<path fill-rule="evenodd" clip-rule="evenodd" d="M64.127 87.1534C66.1346 83.5523 68.806 80.3639 72 77.7566C72.6425 73.7316 72.6282 69.629 71.9576 65.6085C68.8756 68.2831 66.2331 71.4255 64.127 74.9206C64.9321 78.9585 64.9321 83.1156 64.127 87.1534Z" fill="#D9D9D9"/>
<path fill-rule="evenodd" clip-rule="evenodd" d="M78.3915 83.0899C80.3674 79.5226 81.7674 75.6656 82.5397 71.6614C78.7306 73.1135 75.1739 75.1561 72 77.7143C71.3244 81.7837 69.8884 85.6895 67.7672 89.2275C70.9066 86.5535 74.5068 84.4737 78.3915 83.0899Z" fill="#D9D9D9"/>
</g>
<defs>
<clipPath id="clip0_34_138">
<rect width="120" height="159.45" fill="white"/>
</clipPath>
</defs>
</svg>
