<svg width="120" height="49" viewBox="0 0 120 49" fill="none" xmlns="http://www.w3.org/2000/svg">
<g clip-path="url(#clip0_34_133)">
<path d="M4.8758 30.6204C5.31148 30.4006 5.49746 29.8635 5.49746 29.4096V18.2482C5.49746 17.7774 5.31278 17.2572 4.8758 17.0218H10.186C12.5556 17.0218 14.8758 17.9972 14.8758 20.6855C14.8758 22.1148 13.6312 23.2411 12.2864 23.4934C14.219 23.4765 16.084 24.6535 16.084 26.7877C16.084 29.8466 12.8911 30.6204 10.6386 30.6204H4.8758ZM9.17805 18.1988C8.92704 18.1988 8.75797 18.1988 8.30407 18.2482V23.0057H8.8425C10.4721 23.0057 12.0523 22.501 12.0523 20.6204C12.0523 18.7359 10.7907 18.1988 9.17805 18.1988ZM9.51359 24.2321C9.12733 24.2321 8.77357 24.2321 8.30277 24.2659V29.2913C8.89062 29.4096 9.5292 29.4434 10.1184 29.4434C11.48 29.4434 12.8755 28.8387 12.8755 26.7539C12.8755 24.7029 11.2277 24.2321 9.51359 24.2321ZM21.3461 18.1988C21.1107 18.1988 20.8922 18.2313 20.6581 18.2664V22.9718C20.8766 22.9887 21.0782 23.0057 21.2967 23.0057C22.8261 23.0057 23.9524 22.1655 23.9524 20.5021C23.9524 18.8035 22.843 18.1988 21.3461 18.1988ZM28.2052 30.7024C27.6837 30.7024 27.1128 30.7193 26.6081 30.5684C25.6834 30.2992 24.4063 28.2157 23.9017 27.3911C23.1122 26.0633 22.4229 24.2308 20.6581 24.2152V29.4096C20.6581 29.8635 20.8597 30.4175 21.2967 30.6204H17.2129C17.6499 30.4006 17.8515 29.8804 17.8515 29.4096V18.2482C17.8515 17.7774 17.6499 17.2572 17.2129 17.0218H22.1381C24.2723 17.0218 26.945 17.8463 26.945 20.4175C26.945 22.5687 25.1619 23.678 23.1786 23.678C26.0021 23.6949 27.6668 30.3343 30.7933 30.3512C29.9522 30.5929 29.0804 30.7112 28.2052 30.7024ZM30.9949 30.6204C31.3305 30.4683 31.6842 30.0144 31.6842 29.4096V18.2482C31.6842 17.6265 31.3305 17.1895 30.9949 17.0218H35.1801C34.8264 17.1895 34.4908 17.6278 34.4908 18.2482V29.4096C34.4908 30.0144 34.8264 30.467 35.1801 30.6204H30.9949ZM40.0715 30.6204C40.5254 30.4188 40.7439 29.8804 40.7439 29.4096V18.585H37.7357C37.0477 18.585 36.2232 18.6683 35.6184 19.022L36.5587 17.0205H46.5275C47.3339 17.0205 48.1571 17.0036 48.9465 16.8358C48.5603 17.8619 47.434 18.6176 46.7785 18.6176C45.9891 18.6007 44.6781 18.5512 43.5518 18.5512V29.4096C43.5518 29.8791 43.7872 30.4175 44.2255 30.6204H40.0715ZM49.4317 30.6204C49.7672 30.4683 50.1223 30.0144 50.1223 29.4096V18.2482C50.1223 17.6265 49.7685 17.1895 49.4317 17.0218H53.6169C53.2644 17.1895 52.9276 17.6278 52.9276 18.2482V29.4096C52.9276 30.0144 53.2644 30.467 53.6169 30.6204H49.4317ZM61.7701 27.5433C61.7701 24.9539 55.6678 24.366 55.6678 20.2303C55.6678 17.676 58.1064 16.8358 60.2393 16.8358C61.1978 16.8358 62.5764 16.9711 63.4504 17.3742L63.6013 19.9129C63.0641 18.7866 61.7193 17.979 60.4747 17.979C59.4837 17.979 58.4575 18.4667 58.4575 19.593C58.4575 22.2825 64.6599 22.938 64.6599 26.854C64.6599 29.6957 62.1719 30.8714 59.6684 30.8714C58.3561 30.8714 56.5756 30.6191 55.465 29.8622C55.3976 29.4005 55.3637 28.9346 55.3635 28.468C55.3635 27.9127 55.4155 27.3573 55.4988 26.8033C56.1881 28.3835 57.6174 29.6099 59.3991 29.6099C60.7621 29.6112 61.7701 29.022 61.7701 27.5433ZM74.829 30.6204C75.132 30.4852 75.4519 30.0144 75.4519 29.4096V24.3504C74.7119 24.2659 73.7027 24.2321 72.5608 24.2321C71.4007 24.2321 70.3772 24.2659 69.6358 24.3504V29.4096C69.6358 30.0144 69.9376 30.467 70.2419 30.6204H66.2076C66.5106 30.4852 66.8305 30.0144 66.8305 29.4096V18.2482C66.8305 17.6265 66.5106 17.1726 66.2076 17.0218H70.2419C69.9389 17.1739 69.6358 17.6278 69.6358 18.2482V22.821C70.3759 22.9055 71.3838 22.938 72.5608 22.938C73.7027 22.938 74.7119 22.8873 75.4519 22.821V18.2482C75.4519 17.6265 75.132 17.1726 74.829 17.0218H78.8646C78.5629 17.1739 78.2586 17.6278 78.2586 18.2482V29.4096C78.2586 30.0144 78.5616 30.467 78.8646 30.6204H74.829ZM10.0832 48.321C10.2172 48.1858 10.3355 48.0843 10.3355 47.8502C10.3355 47.767 10.3017 47.6317 10.2003 47.3807C10.2003 47.3807 9.09091 44.3387 8.95565 43.985C8.11549 43.8835 7.24281 43.8835 6.38445 43.8835C5.5768 43.8835 4.75354 43.9004 3.9472 43.985L2.63623 47.3131C2.47106 47.7163 2.41904 47.8671 2.41904 47.9517C2.41904 48.1533 2.58681 48.2534 2.73898 48.321H0C0.403173 48.1194 0.755625 47.6981 0.923397 47.278L5.42853 35.6627C5.44964 35.6097 5.46109 35.5533 5.46235 35.4962C5.46235 35.1763 5.24255 34.8733 4.95773 34.7224H8.48615L13.0589 47.2624C13.235 47.7112 13.5613 48.0849 13.9823 48.3197L10.0832 48.321ZM6.53791 37.3118L4.47132 42.6064C5.09299 42.6727 5.73156 42.6883 6.35453 42.6883C7.05944 42.6883 7.76564 42.6883 8.45494 42.6064L6.53791 37.3118ZM14.6729 48.321C15.0098 48.1689 15.3609 47.7163 15.3609 47.1102V35.9501C15.3609 35.3271 15.0085 34.8915 14.6729 34.7224H18.8581C18.5057 34.8902 18.1688 35.3271 18.1688 35.9501V47.1102C18.1688 47.7163 18.5057 48.1689 18.8581 48.321H14.6729ZM25.2282 35.9007C24.9915 35.9007 24.7731 35.9332 24.539 35.967V40.675C24.7574 40.6907 24.959 40.7063 25.1775 40.7063C26.707 40.7063 27.8333 39.8674 27.8333 38.2027C27.8333 36.5042 26.7239 35.9007 25.2282 35.9007ZM32.4216 48.4043C31.9014 48.4043 31.3292 48.4212 30.8246 48.2703C29.9012 47.9998 28.6227 45.9163 28.1181 45.093C27.3287 43.7652 26.3025 41.9158 24.5377 41.9158V47.1102C24.5377 47.5641 24.7392 48.1181 25.1762 48.321H21.0912C21.5282 48.1025 21.7297 47.581 21.7297 47.1102V35.9501C21.7297 35.4793 21.5282 34.9578 21.0912 34.7224H26.0164C28.1506 34.7224 30.8233 35.5456 30.8233 38.1181C30.8233 40.2693 28.8737 41.3786 27.395 41.3786C30.3355 41.5464 32.1017 48.0505 35.0085 48.0505C34.1682 48.2947 33.2966 48.4139 32.4216 48.4043ZM49.3809 36.0503L45.2465 48.321C44.9109 48.321 44.5741 48.2027 44.3894 48.0687C43.968 47.6825 43.3307 46.0346 43.094 45.4286L41.229 40.705L38.5395 48.3197H37.2623L32.6388 36.0164C32.4386 35.4962 32.1017 34.9916 31.5984 34.7224H35.6145C35.5226 34.7861 35.4482 34.8719 35.3982 34.9719C35.3482 35.0719 35.3242 35.1829 35.3284 35.2946C35.3284 35.4286 35.396 35.6133 35.4467 35.7654L38.4549 43.9004L41.6647 34.7224L45.1944 43.5636L47.8671 35.5638C47.9347 35.3454 47.9685 35.2608 47.9685 35.1256C47.9685 34.9578 47.9009 34.8563 47.7331 34.7224H50.3889C49.9025 34.9747 49.55 35.5469 49.3809 36.0503ZM54.3231 37.3118L52.2552 42.6064C52.8781 42.6727 53.5154 42.6883 54.1384 42.6883C54.8446 42.6883 55.5495 42.6883 56.2401 42.6064L54.3231 37.3118ZM57.8697 48.321C58.0036 48.1858 58.122 48.0843 58.122 47.8502C58.122 47.767 58.0713 47.6317 57.9867 47.3807C57.9867 47.3807 56.8774 44.3387 56.7421 43.985C55.9019 43.8835 55.028 43.8835 54.1709 43.8835C53.3632 43.8835 52.54 43.9004 51.7336 43.985L50.4214 47.3131C50.2536 47.7176 50.2042 47.8671 50.2042 47.9517C50.2042 48.1533 50.372 48.2534 50.5228 48.321H47.7839C48.1883 48.1194 48.5408 47.6981 48.7085 47.278L53.2137 35.6627C53.2293 35.6133 53.2475 35.5639 53.2475 35.4962C53.2475 35.1763 53.0277 34.8733 52.7429 34.7224H56.2713L60.8441 47.2624C61.0287 47.7657 61.4332 48.1351 61.7688 48.3197L57.8697 48.321ZM70.1561 36.1517L66.9294 41.7987V47.1102C66.9294 47.5472 67.1141 48.1181 67.5341 48.321H63.5336C63.9381 48.1025 64.1215 47.5303 64.1215 47.1102V41.7818L61.3318 37.2936C61.0795 36.8735 59.9025 34.9227 58.4901 34.9227C58.8776 34.7718 60.0533 34.5533 60.8441 34.5533C62.155 34.5533 62.8105 34.6717 63.6182 35.9319L66.2063 40.0339C66.4235 39.6294 68.4744 36.0659 68.4744 36.0659C68.7255 35.6289 68.8945 35.3271 68.8945 35.175C68.8945 34.9734 68.8113 34.8563 68.6097 34.7211H71.5008C70.9299 34.9916 70.4591 35.6133 70.1561 36.1517ZM77.685 45.2439C77.685 42.6558 71.5854 42.0679 71.5854 37.9322C71.5854 35.3779 74.0226 34.5377 76.1568 34.5377C77.1154 34.5377 78.494 34.673 79.3679 35.0761L79.5188 37.6135C78.9804 36.4872 77.6356 35.6796 76.3922 35.6796C75.4012 35.6796 74.3751 36.1673 74.3751 37.2936C74.3751 39.9819 80.5788 40.6386 80.5788 44.5546C80.5788 47.395 78.1077 48.5707 75.5859 48.5707C74.2749 48.5707 72.4932 48.3197 71.3838 47.5628C71.3169 47.1011 71.2834 46.6351 71.2837 46.1686C71.2837 45.6133 71.3331 45.0592 71.4176 44.5039C72.1082 46.0854 73.5349 47.3118 75.318 47.3118C76.6784 47.3118 77.685 46.7226 77.685 45.2439Z" fill="#7E7E7E"/>
<path d="M114.357 7.5485C112.05 9.85179 107.035 11.8208 104.569 12.7455C101.203 14.0084 99.71 14.4558 97.8215 15.0709C95.6951 15.7628 91.4228 17.0543 91.4228 17.0543C100.26 19.6918 106.491 20.4904 106.491 20.4904C106.491 20.4904 109.395 19.5943 113.99 17.1375C116.482 15.8721 117.703 15.0176 118.584 14.2022C118.904 13.9108 119.739 13.046 119.948 11.9314C119.965 11.8481 120.001 11.6362 120.001 11.4255C120.001 11.4255 119.999 11.2811 119.99 11.155C119.98 11.0067 119.96 10.9091 119.96 10.9091C119.96 10.9091 119.914 10.6386 119.843 10.4553C119.772 10.2732 119.488 9.69703 119.028 9.33157C118.722 9.08576 118.188 8.45499 116.266 7.7839C115.604 7.5524 114.545 7.33781 114.545 7.33781L114.357 7.5485" fill="#7E7E7E"/>
<path d="M119.999 11.3669C119.999 11.3669 119.988 11.1224 119.93 10.9117C119.875 10.7155 119.788 10.5296 119.672 10.3616C119.485 10.0814 119.266 9.82392 119.019 9.59428C118.779 9.37123 118.52 9.16893 118.246 8.98952C117.039 8.19748 115.486 7.75399 114.099 7.56931C111.961 7.28449 109.521 7.33261 109.286 7.32611C108.504 7.3131 103.411 7.35342 102.104 7.38073C96.2999 7.49648 89.1871 7.51339 87.3221 7.51209C68.096 7.60052 59.7282 7.18695 50.411 5.31804C42.4854 3.74437 38.0895 2.25523 38.0895 2.25523C45.0813 2.00552 85.8655 0.318694 93.3099 0.114506C98.1753 -0.0194513 101.63 -0.0480636 104.405 0.111905C105.815 0.19384 107.141 0.312191 108.8 0.591812C110.285 0.84412 111.636 1.27721 112.427 1.56853C114.084 2.1824 115.47 3.07718 116.166 3.98237C116.166 3.98237 116.37 4.18916 116.645 4.56112C116.959 4.9903 117.316 5.52223 117.442 5.71992C118.445 7.24807 118.926 8.21179 119.094 8.54603C119.273 8.89718 119.432 9.25874 119.588 9.62159C119.739 9.97405 119.805 10.1899 119.845 10.3369C119.957 10.7141 119.98 11.0587 119.987 11.1328L119.999 11.3669" fill="#7E7E7E"/>
</g>
<defs>
<clipPath id="clip0_34_133">
<rect width="120" height="48.576" fill="white"/>
</clipPath>
</defs>
</svg>
