<svg width="120" height="120" viewBox="0 0 120 120" fill="none" xmlns="http://www.w3.org/2000/svg">
<g clip-path="url(#clip0_27_20)">
<path d="M62.303 60.1212C62.303 58.9091 61.3333 57.9394 60.1212 57.8788C58.9091 57.8182 57.9394 58.8485 57.8788 60.0606C57.8788 61.2727 58.8485 62.2424 60.0606 62.303C60.0606 62.303 60.0606 62.303 60.1212 62.303C61.2727 62.303 62.2424 61.3333 62.303 60.1212Z" fill="#7E7E7E"/>
<path d="M60.1212 0.181824C27.7576 0.181824 0.181824 27.7576 0.181824 60.0606C0.181824 92.3636 27.7576 119.939 60.1212 119.939C92.4848 119.939 120 92.3636 120 60.0606C120 27.7576 92.4242 0.181824 60.1212 0.181824ZM60.1212 115.394C29.5758 115.394 4.84849 90.6667 4.84849 60.1212C4.84849 29.5758 29.5758 4.84849 60.1212 4.84849C90.6667 4.84849 115.394 29.5758 115.394 60.1212C115.394 90.6061 90.6667 115.394 60.1212 115.394Z" fill="#7E7E7E"/>
<path d="M91.697 77.2727L85.9394 73.9394C86.4849 73.8788 86.9697 73.8182 87.4545 73.697C88.303 73.2727 88.2424 72.4242 89.5152 71.6364C89.8788 71.3939 90.6667 71.2121 90.6667 70.6061C90.6061 68.4849 89.697 68.0606 89.697 67.0909C89.697 66.2424 90.2424 64.8485 89.8182 64.1818C89.6364 63.8182 89.0303 64 88.6667 63.7576C87.9394 63.2727 88.6061 62.6061 88.3636 61.8182C88.2424 61.5152 88.1212 61.2121 87.9394 60.9697H96.0606C95.9394 66.7273 94.4242 72.303 91.697 77.2727ZM79.0303 90.6667L66.303 68.5455C66.3636 68.4849 66.4242 68.4242 66.4848 68.3636C67.3939 67.7576 67.7576 69.2121 69.2121 70.6667C70.0606 71.5152 71.2727 70.0606 71.9394 70.7879C73.0303 71.8182 73.3333 72.7879 75.7576 73.8182C76.9091 74.303 74.4848 76.1818 76.3636 76.7879C77.1515 77.0303 78.6061 76.9697 79.0303 77.3939C79.4545 77.8182 78.5455 78.4848 79.8182 78.9091C80.8485 79.2121 81.9394 78.9697 82.7273 78.2424C83.6364 77.3939 82.9697 76.3636 84.0606 75.0909L90.7273 78.9091C87.8182 83.697 83.8182 87.7576 79.0303 90.6667ZM61.1515 96.0606V72.6061C61.4545 72.4242 61.697 72.1818 61.9394 71.8788C63.0303 70.9091 64.4848 71.3939 65.4545 70.8485L77.4545 91.6364C72.4242 94.4242 66.8485 95.9394 61.1515 96.0606ZM60.6667 65.9394H59.5758V63.2727C59.3939 63.2121 59.1515 63.1515 58.9697 63.0909L58.303 64.2424L57.4545 63.7576L58.1212 62.6061C57.9394 62.4849 57.7576 62.303 57.6364 62.1212L56.4848 62.7879L55.9394 61.9394L57.0909 61.2727C57.0303 61.0909 56.9697 60.8485 56.9091 60.6667H54.2424V59.5758H56.9091C56.9697 59.3333 57.0303 59.1515 57.0909 58.9091L55.9394 58.303L56.4242 57.4545L57.5758 58.1212C57.697 57.9394 57.8788 57.7576 58.0606 57.6364L57.3939 56.4848L58.2424 56L58.9091 57.1515C59.0909 57.0909 59.3333 57.0303 59.5758 56.9697V54.3636H60.6667V56.9697C60.9091 57.0303 61.0909 57.0909 61.3333 57.1515L61.9394 56L62.7879 56.4848L62.1212 57.6364C62.303 57.7576 62.4849 57.9394 62.6061 58.1212L63.7576 57.4545L64.2424 58.303L63.1515 58.9697C63.2121 59.1515 63.2727 59.3939 63.3333 59.6364H65.9394V60.7273H63.3333C63.2727 60.9091 63.2121 61.1515 63.1515 61.3333L64.303 62L63.8182 62.8485L62.6667 62.1818C62.5455 62.3636 62.3636 62.5455 62.1818 62.6667L62.8485 63.8182L62 64.303L61.3333 63.1515C61.1515 63.2121 60.9091 63.2727 60.7273 63.3333L60.6667 65.9394ZM59.3333 96.1212C53.6364 96 48 94.4848 42.9697 91.7576L53.1515 74C53.8788 74.1818 54.4848 73.8182 55.2727 71.5758C55.697 70.3636 58.0606 70.4849 58.5455 71.2121C58.9091 71.697 59.0909 72.0606 59.3333 72.303V96.1212ZM29.3939 78.9091L35.9394 75.1515C35.9394 75.8182 35.697 76.4849 36.0606 76.9697C36.303 77.3333 36.7273 77.3333 37.6364 77.1515C38.9697 76.9091 39.5758 79.9394 41.7576 78.5455C42.7273 77.9394 42.7879 76.5455 43.697 75.6364C44.8485 74.6061 46.1818 73.8788 47.6364 73.5152C49.5758 72.9091 50.5455 72.8485 51.4545 73.2121L51.5152 73.2727L41.3333 90.8485C36.4848 87.8182 32.3636 83.7576 29.3939 78.9091ZM24.1212 61.0303H30.7273C30.7879 61.3333 30.8485 61.5758 30.9697 61.8182C31.2727 62.4242 32.1212 62.8485 31.8788 63.3939C30.6061 66.2424 32.303 66.0606 32.303 67.0303C32.303 67.8182 30.9091 68.1818 32.6061 69.697C33.9394 70.9091 33.0303 71.697 35.0909 73.4545L28.4848 77.2727C25.7576 72.303 24.2424 66.7273 24.1212 61.0303ZM28.4848 42.9091L35.3939 46.9091C34.6667 48.0606 34.9697 49.5152 33.3333 51.4545C31.4545 53.7576 31.6364 55.6364 30.7273 55.4545C29.0909 55.1515 29.0909 56 28.9091 57.1515C28.7273 57.8182 28.7879 58.5455 29.0303 59.2121H24.1212C24.2424 53.5152 25.7576 47.9394 28.4848 42.9091ZM41.3333 29.4545L47.1515 39.4545C45.8182 39.2727 45.4545 39.8788 44.9697 41.2727C44.6667 42.1212 44.9697 43.4545 43.8788 43.3939C42.1212 43.3333 41.2727 43.1515 40.1818 44.1212C39.6364 44.5455 39.0909 45.5152 38.4848 45.8788C38.1212 46.1212 37.6364 45.4545 36.9697 45.6364L29.4545 41.3333C32.3636 36.4848 36.4848 32.4242 41.3333 29.4545ZM49.4545 48.9697C49.4545 49.0909 49.3939 49.2727 49.3333 49.3939C49.2727 49.4545 49.2727 49.5758 49.2121 49.6364C49.0303 49.8788 48.7879 50.1212 48.5455 50.303C48.4849 50.3636 48.4242 50.3636 48.3636 50.4242L47.8788 50.6667C47.697 50.7273 47.5758 50.8485 47.5151 51.0303C47.4545 51.0303 47.4545 51.3333 47.3939 51.3333C47.2121 51.5758 47.0303 51.8182 46.7879 52C46.6667 52.0606 46.4848 52.1212 46.303 52.1212C46.1212 52.1818 45.9394 52.2424 45.8182 52.3636C45.697 52.4242 45.5152 52.4848 45.3333 52.4848C45.2727 52.4848 45.0909 52.4849 45.0303 52.4242H44.9697C44.9091 52.4242 44.8485 52.3636 44.7879 52.303C44.6667 52.2424 44.6061 52.1212 44.5455 52.0606C44.4848 52 44.4242 51.9394 44.3636 51.9394C44.303 51.9394 44.303 51.9394 44.2424 51.8788L44 51.8182C43.8182 51.7576 43.6364 51.697 43.5152 51.5758C43.4545 51.5152 43.4545 51.5152 43.3939 51.4545C43.2121 51.2727 43.0909 50.9697 43.0909 50.7273C43.0909 50.4848 43.0909 50.2424 43.0909 50C43.0909 49.8788 43.1515 49.697 43.1515 49.5758C43.2121 49.4545 43.2121 49.3939 43.2727 49.3333C43.3939 49.2121 43.5152 49.1515 43.6364 49.0909C43.697 49.0909 43.8182 49.0303 43.8788 49.0303L44.303 48.9697C44.5455 48.9091 44.7273 48.7273 44.7879 48.4849V48.3636L44.8485 47.9394C44.8485 47.697 44.9697 47.5152 45.1515 47.3939C45.2121 47.3333 45.2727 47.3333 45.3333 47.2727C45.4545 47.2121 45.6364 47.1515 45.8182 47.1515C46.0606 47.0909 46.303 47.0909 46.5455 47.0909C46.6667 47.0909 46.8485 47.0909 46.9697 47.1515C47.1515 47.1515 47.3333 47.1515 47.4545 47.1515H47.5758C47.7576 47.2121 47.9394 47.3333 48.1212 47.4545C48.1818 47.5152 48.4242 47.7576 48.4848 47.8182C48.6061 47.9394 48.6667 48 48.7879 48.1212C49.0909 48.3636 49.2727 48.7273 49.2727 49.0909C49.3939 48.9697 49.4545 48.9697 49.4545 48.9697ZM59.1515 24.1212V39.7576C58.7273 40 58.2424 40.1818 57.697 40.2424C56.6061 40.2424 57.2727 39.0303 56.1818 39.0303C55.5151 39.0303 55.2727 40 54.4848 40.1818C53.4545 40.4242 52.6667 39.5758 51.5758 39.3939C50.8485 39.2727 50.0606 39.3333 49.3333 39.6364L42.9091 28.4848C47.8788 25.7576 53.4545 24.303 59.1515 24.1212ZM61.6364 44.9091C61.8788 45.0909 61.8182 45.5758 62.0606 45.7576C62.303 45.9394 62.1818 45.9394 62.4849 46.1212C62.6061 46.4242 62.6667 46.7273 62.6667 47.0303C62.7879 47.8182 62.6667 48.6667 62.4849 49.4545C62.2424 50.303 61.697 51.0303 60.9091 51.3939C60.303 51.6364 59.2121 51.5152 59.2121 50.6667C59.2121 50 59.5152 50.2424 59.3939 49.8182C59.2727 49.4545 59.2121 49.0303 59.1515 48.6667C59.1515 48.4242 59.0909 48.2424 59.0909 48.0606C59.0909 47.7576 58.9091 47.6364 58.7879 47.6364C58.6667 47.6364 58.5455 47.5152 58.4848 47.2727C58.4242 47.0909 58.303 46.9091 58.1818 46.7273C58.1818 46.6667 58.1212 46.6061 58.1212 46.5455C58.0606 46.1818 58.1818 45.7576 58.4848 45.5152C58.7879 44.9697 59.3333 44.6061 59.9394 44.5455C60.5455 44.4242 61.1515 44.6061 61.6364 44.9091ZM61.0303 24.1212C66.7273 24.2424 72.303 25.7576 77.2727 28.4848L71.0303 39.2727C70.9091 39.1515 70.7273 39.0909 70.5455 39.0909C69.5151 39.0909 69.7576 40.303 69.2121 40.303C68.8485 40.303 68.7879 39.697 67.8182 39.697C67.1515 39.697 66.4849 39.8182 65.8182 40.0606C65.0303 40.4242 65.3333 41.6364 63.697 41.9394C63.2121 42.1212 62.7273 42.0606 62.303 41.8788C61.6364 41.5152 61.9394 40.3636 61.2121 39.8788L61.0909 39.8182C61.0303 39.7576 61.0303 24.1212 61.0303 24.1212ZM77.8182 62.2424C77.6364 62.4242 76.6061 62.1212 76.1212 62.6061C76.0606 62.6667 76 62.6667 76 62.7273C75.9394 62.8485 75.8182 62.9091 75.7576 63.0303C75.5758 63.2727 75.3939 63.4545 75.2121 63.6364C75.0909 63.7576 74.9697 63.8788 74.8485 64C74.6061 64.2424 74.2424 64.3636 73.9394 64.303C73.6364 64.303 73.3333 64.1212 73.0909 63.8788C72.7273 63.4545 72.4849 62.9697 72.1818 62.4849C71.9394 62.1818 71.697 61.9394 71.3939 61.7576C71.0303 61.5151 70.9697 61.0303 71.3939 60.4242C71.8182 59.8182 72.4848 60.1212 73.0303 60.1818H73.4545C74.1212 60.0606 74.9697 60.0606 75.3333 60C75.697 59.8788 76.0606 59.5758 76.9697 60.303C77.9394 61.0909 78 62.0606 77.8182 62.2424ZM76.9091 50.7273C76.7879 50.7879 76.6061 50.8485 76.5455 50.9091C76.5455 50.9697 76.5455 51.0303 76.5455 51.0909C76.4242 51.697 76.4242 52.1212 75.2121 52.1818C74.6061 52.2424 74 52.1818 73.3939 52.0606C73.0909 52 72.7273 51.8788 72.4242 51.7576C71.9394 51.697 71.5152 51.697 71.2727 51.6364C70.6061 51.5758 70 51.3333 69.5758 50.8485C67.697 48.9091 69.5152 47.4545 70.303 47.3939C71.0909 47.3939 71.2727 47.7576 71.697 48.1212C72.1212 48.4849 73.3333 48.6667 73.7576 48.303C74 48.0606 74.303 47.5758 74.5455 47.3333C74.7879 47.0909 75.1515 46.9091 75.5152 46.8485C75.7576 46.5455 76 46.3636 76.3636 46.2424C77.7576 45.7576 78.8485 46.4242 78.6667 47.8788C78.6061 48.2424 78.5455 48.6061 78.4242 48.9091C78.4848 49.8182 77.8182 50.6061 76.9091 50.7273ZM90.7879 41.3333L84.7879 44.7879C83.8788 44.303 82.8485 43.9394 81.8182 43.697C81.2121 43.5758 80.5455 43.5152 80.3636 42.9091C80.1818 42.303 80.5455 41.5152 79.697 40.9697C78.8485 40.3636 77.6364 40.4849 77.0303 41.3939C76.8485 41.6364 76.7273 41.8788 76.6667 42.1818C76.5455 42.4848 76.2424 42.9091 75.3939 42.6667C74.5455 42.3636 74.2424 42.303 73.9394 41.4545C73.6364 40.6061 73.8182 39.8182 72.8485 39.8788L78.8485 29.4545C83.7576 32.4242 87.8182 36.4848 90.7879 41.3333ZM96.0606 59.1515H86.7273C86.5455 58.9091 86.4242 58.6667 86.303 58.3636C86 57.697 86 56.9697 86.1818 56.303C86.4848 55.3939 87.3333 53.9394 87.6364 53.1515C88.303 50.8485 87.8788 48.303 86.4242 46.3636L86.1818 46.0606L91.697 42.9091C94.4242 47.9394 95.9394 53.5152 96.0606 59.1515ZM60.1212 22.0606C39.1515 22.0606 22.1818 39.0303 22.1818 60C22.1818 80.9697 39.1515 97.9394 60.1212 97.9394C81.0909 97.9394 98.0606 80.9697 98.0606 60.0606C98.0606 39.0909 81.0909 22.1212 60.1212 22.0606Z" fill="#7E7E7E"/>
<path d="M108.97 69.6363L109.03 68.7879L107.455 69.7576C107.333 69.8182 107.212 69.8182 107.091 69.697C107.03 69.6363 107.03 69.5151 107.091 69.4545L107.939 66.8485L106.97 67.1515L106.606 65.4545L105.515 66.8485L104.727 66.1212L104.364 68.8485C104.364 68.9697 104.182 69.0909 104.061 69.0909C104 69.0909 103.939 69.0303 103.879 68.9697L102.909 67.3939L102.606 68.1818L101.273 67.4545L101.758 69.0303L100.97 69.5151L102.909 71.2727L101.333 72.303L104.788 72.1818L104.242 74.606L104.788 74.7273L105.333 72.303L108.424 73.9394L107.394 72.3636L109.879 71.5757L109.394 70.7879L110.545 69.5757L108.97 69.6363Z" fill="#7E7E7E"/>
<path d="M104.909 81.7576L105.152 80.9697L103.394 81.5152C103.273 81.5758 103.091 81.5152 103.03 81.3333C103.03 81.2727 103.03 81.1515 103.091 81.0909L104.545 78.7879L103.515 78.8485L103.576 77.0909L102.182 78.1818L101.636 77.3333L100.606 79.8182C100.545 79.9394 100.364 80 100.242 79.9394C100.182 79.8788 100.121 79.8788 100.121 79.7576L99.5758 78L99.0909 78.6667L97.9394 77.6364L98 79.2727L97.1515 79.5152L98.5455 81.697L96.7273 82.2424L100.121 83.0303L98.9697 85.2727L99.4546 85.5152L100.606 83.2727L103.152 85.6364L102.606 83.8182L105.212 83.697L104.909 82.8485L106.303 82L104.909 81.7576Z" fill="#7E7E7E"/>
<path d="M110.424 57.8788L111.212 56.4242L109.758 56.8485L109.576 56.0606L108.303 57.3939C108.182 57.5151 108 57.5151 107.939 57.3939C107.879 57.3333 107.879 57.2727 107.879 57.2121L108 54.4848L107.152 55.0303L106.364 53.4545L105.697 55.0909L104.788 54.606L105.152 57.3333C105.152 57.3939 105.152 57.5151 105.091 57.5151C105.03 57.5757 104.97 57.5757 104.909 57.5757C104.848 57.5757 104.788 57.5757 104.727 57.5151L103.394 56.2424L103.273 57.0909L101.818 56.7879L102.667 58.1818L102.061 58.8485L104.364 60.0606L103.091 61.4545L106.424 60.4242L106.545 62.9091H107.091L106.97 60.4242L110.364 61.2121L108.97 59.9394L111.152 58.5454L110.424 57.8788Z" fill="#7E7E7E"/>
<path d="M96.2424 37.6364L96.0606 38.5454L98.6667 38.4242L98.2424 40.2424L100.606 37.697L101.939 39.8182L102.424 39.5151L101.091 37.3939L104.364 36.3636L102.545 35.9394L103.758 33.6364L102.848 33.3939L102.788 31.7576L101.758 32.8485L101.212 32.2424L100.788 34.0606C100.727 34.1818 100.606 34.303 100.485 34.2424C100.424 34.2424 100.364 34.1818 100.303 34.1212L99.0303 31.697L98.5455 32.6061L97.0909 31.697L97.3333 33.3939L96.303 33.4545L97.9394 35.6364C98 35.697 98 35.7576 98 35.8788C97.9394 36 97.8182 36.1212 97.697 36.0606L95.8788 35.6364L96.1818 36.4242L94.7273 36.8485L96.2424 37.6364Z" fill="#7E7E7E"/>
<path d="M103.152 41.9394L102.909 43.697L101.939 43.4545L102.97 46C103.03 46.1212 102.97 46.2424 102.848 46.3636C102.848 46.3636 102.848 46.3636 102.788 46.3636C102.727 46.4242 102.667 46.4242 102.606 46.3636L100.97 45.5152L101.091 46.303L99.5758 46.3636L100.788 47.4545L100.364 48.2424L102.909 48.8485L102.061 50.5455L104.97 48.6667L105.697 51.0909L106.242 50.9091L105.515 48.4848L108.97 48.3636L107.333 47.5152L109.091 45.5152L108.303 45.0909L108.667 43.5152L107.394 44.303L107.03 43.5758L106.182 45.2121C106.121 45.3333 105.939 45.3939 105.818 45.3333C105.758 45.2727 105.697 45.2121 105.697 45.1515L105.091 42.4848L104.424 43.2121L103.152 41.9394Z" fill="#7E7E7E"/>
<path d="M11.2121 69.6363L11.1515 68.7879L12.7273 69.7576C12.8485 69.8182 13.0303 69.8182 13.0909 69.697C13.1515 69.6363 13.1515 69.5757 13.0909 69.4545L12.303 66.8485L13.2727 67.1515L13.6364 65.4545L14.7273 66.8485L15.5152 66.1212L15.8788 68.8485C15.8788 68.9697 16.0606 69.0909 16.1818 69.0909C16.2424 69.0909 16.303 69.0303 16.3636 68.9697L17.3333 67.3939L17.697 68.1818L19.0303 67.4545L18.5455 69.0303L19.3333 69.5151L17.3939 71.2727L18.9697 72.303L15.5152 72.1818L16.0606 74.606L15.5152 74.7273L14.9697 72.303L11.8788 73.9394L12.8485 72.3636L10.3636 71.6363L10.8485 70.8485L9.75758 69.6363H11.2121Z" fill="#7E7E7E"/>
<path d="M15.2727 81.7576L15.0303 80.9697L16.7879 81.5152C16.9091 81.5758 17.0909 81.5152 17.1515 81.3333C17.1515 81.2727 17.1515 81.1515 17.0909 81.0909L15.6364 78.7879L16.6667 78.8485L16.6061 77.0909L18 78.1818L18.5455 77.3333L19.5758 79.8182C19.5758 79.8788 19.697 79.9394 19.7576 79.9394C19.8182 79.9394 19.8788 79.9394 19.9394 79.9394C20 79.8788 20.0606 79.8788 20.0606 79.7576L20.6061 78L21.0909 78.6667L22.1818 77.6364L22.1212 79.2727L22.9697 79.5152L21.5758 81.697L23.3939 82.2424L20 83.0303L21.1515 85.2727L20.6667 85.5152L19.4545 83.2727L16.9091 85.6364L17.4545 83.8182L14.8485 83.697L15.1515 82.8485L13.7576 82L15.2727 81.7576Z" fill="#7E7E7E"/>
<path d="M9.75757 57.8788L8.9697 56.4242L10.4242 56.8485L10.6061 56.0606L11.8788 57.3939C12 57.5151 12.1212 57.5151 12.2424 57.3939C12.303 57.3333 12.3636 57.2727 12.303 57.2121L12.1818 54.4848L13.0303 55.0303L13.8182 53.4545L14.4848 55.0909L15.3939 54.606L15.0303 57.3333C15.0303 57.4545 15.0909 57.6364 15.2727 57.6364C15.2727 57.6364 15.2727 57.6364 15.3333 57.6364C15.3939 57.6364 15.4545 57.6363 15.5151 57.5757L16.8485 56.303L16.9697 57.1515L18.4242 56.8485L17.5758 58.1818L18.1818 58.8485L15.8788 60.0606L17.1515 61.4545L13.8182 60.4242L13.697 62.9697H13.1515L13.2727 60.4242L9.87879 61.2121L11.2727 59.9394L9.09091 58.5454L9.75757 57.8788Z" fill="#7E7E7E"/>
<path d="M23.8788 37.6364L24.0606 38.5454L21.4545 38.4242L21.8788 40.2424L19.5152 37.697L18.1818 39.7576L17.697 39.4545L19.0303 37.3333L15.7576 36.303L17.5758 35.8788L16.3636 33.5757L17.2121 33.3333L17.2727 31.697L18.303 32.7879L18.8485 32.1818L19.2727 34C19.3333 34.1212 19.4545 34.2424 19.5758 34.1818C19.6364 34.1818 19.697 34.1212 19.7576 34.0606L21.0303 31.6364L21.5152 32.5454L22.9697 31.6364L22.7273 33.3333L23.7576 33.3939L22.1212 35.5757C22.0606 35.6364 22.0606 35.697 22.0606 35.8182C22.1212 35.9394 22.2424 36.0606 22.3636 36L24.1818 35.5757L23.8788 36.3636L25.3333 36.7879L23.8788 37.6364Z" fill="#7E7E7E"/>
<path d="M17.0303 41.9394L17.2727 43.697L18.303 43.4545L17.2727 46C17.2121 46.1212 17.2727 46.303 17.4546 46.3636C17.5152 46.3636 17.5758 46.3636 17.6364 46.3636L19.2727 45.5152L19.1515 46.303L20.6667 46.3636L19.4545 47.4545L19.8788 48.2424L17.3333 48.8485L18.1818 50.5455L15.2727 48.6061L14.5455 51.0303L14.0606 50.8485L14.7879 48.4242L11.3333 48.303L12.9697 47.3939L11.1515 45.5152L11.9394 45.0909L11.5758 43.5152L12.8485 44.3636L13.2121 43.6364L14.0606 45.2727C14.1212 45.3939 14.303 45.4545 14.4242 45.3939C14.4849 45.3333 14.5455 45.2727 14.5455 45.2121L15.1515 42.5455L15.8788 43.2727L17.0303 41.9394Z" fill="#7E7E7E"/>
<path d="M26.0606 28.1212C24.8485 26.8485 24.8485 24.8485 26.1212 23.6364C26.5455 23.2121 27.0909 22.9091 27.697 22.7879C28.4848 22.6667 29.2121 22.9091 29.8182 23.4545L28.4848 24.6667C28.0606 24.303 27.4545 24.303 27.0909 24.7273C26.4848 25.3333 26.6667 26.1212 27.3333 26.8485C28 27.5758 28.8485 27.7576 29.4545 27.2121C29.8788 26.8485 29.9394 26.1818 29.5758 25.7576L30.9091 24.4849C31.3333 24.9697 31.5151 25.6364 31.5151 26.303C31.4545 27.0909 31.0909 27.7576 30.4848 28.2424C29.3333 29.4546 27.3939 29.4545 26.1818 28.303C26.1818 28.303 26.1818 28.2424 26.0606 28.1212Z" fill="#7E7E7E"/>
<path d="M33.3333 23.0303L34.3636 22.303L33.3333 21.5151C33.0909 21.3333 32.6667 21.0303 32.6667 21.0303C32.6667 21.0303 32.8485 21.5151 32.9091 21.8182L33.3333 23.0303ZM30.8485 19.8788L32.3636 18.8485L37.8182 22.6061L36.2424 23.697L35.4545 23.0909L33.7576 24.303L34 25.2121L32.5455 26.2424L30.8485 19.8788Z" fill="#7E7E7E"/>
<path d="M35.6364 16.7273L37.2727 15.8788L40.6061 18.1212L39.0909 14.9697L40.6667 14.2424L43.3939 19.7576L41.697 20.6061L38.4242 18.303L39.9394 21.4546L38.3636 22.2424L35.6364 16.7273Z" fill="#7E7E7E"/>
<path d="M45.5758 16.7273L46.7879 16.3636L46.0606 15.2727C45.8788 15.0303 45.5758 14.6061 45.5758 14.6061V15.4545V16.7273ZM44.1818 12.9697L45.9394 12.4242L50 17.6364L48.1818 18.2424L47.6364 17.4545L45.6364 18.0606V19.0303L43.9394 19.5758L44.1818 12.9697Z" fill="#7E7E7E"/>
<path d="M52.9697 15.6364C53.8182 15.5151 54.303 14.9091 54.1212 13.8788C53.9394 12.8485 53.3333 12.3636 52.4849 12.4848L51.6364 12.6061L52.1212 15.7576L52.9697 15.6364ZM49.6364 11.3939L52.4849 10.9697C54.2424 10.7273 55.6364 11.6364 55.9394 13.5758C56.2424 15.5152 55.2727 16.7879 53.3333 17.0909L50.6061 17.5152L49.6364 11.3939Z" fill="#7E7E7E"/>
<path d="M58.8485 14.4242H60.1212L59.697 13.2121C59.5758 12.9091 59.4546 12.4242 59.4546 12.4242C59.4546 12.4242 59.3333 12.9091 59.2121 13.2121L58.8485 14.4242ZM58.5455 10.3636H60.3636L62.7879 16.4848H60.8485L60.5455 15.5758H58.4242L58.1212 16.4848H56.303L58.5455 10.3636Z" fill="#7E7E7E"/>
<path d="M69.2121 16.7879C68.7273 17.2727 68 17.4545 67.3333 17.2727C66.5455 17.1515 65.8788 16.7273 65.4545 16.1212C64.9697 15.3939 64.8485 14.4848 65.0303 13.6364C65.3333 11.8182 66.7273 10.6667 68.6061 10.9697C70.1818 11.2727 71.0909 12.2424 71.0303 13.6364L69.2727 13.3333C69.2121 12.8485 68.8485 12.4848 68.3636 12.4242C67.5152 12.303 66.9697 12.9091 66.7879 13.9394C66.6061 14.9697 66.9697 15.7576 67.8182 15.9394C68.303 16.0606 68.8485 15.8182 69.0303 15.3333L68.1818 15.2121L68.4848 13.9394L70.9697 14.3636L70.4242 17.697L69.2121 17.5152V16.7879Z" fill="#7E7E7E"/>
<path d="M76.1212 16.303C76.4242 15.3333 76.2424 14.4848 75.4545 14.1818C74.6667 13.8788 74 14.4848 73.6364 15.4545C73.3333 16.4242 73.5152 17.2727 74.303 17.5758C75.0909 17.8182 75.8182 17.2727 76.1212 16.303ZM71.8788 14.8485C72.3636 13.1515 74.1212 12.1818 75.7576 12.6667C77.4545 13.1515 78.4242 14.9091 77.9394 16.5455C77.9394 16.6667 77.8788 16.7273 77.8788 16.8485C77.3939 18.5455 75.6364 19.5151 74 19.0303C72.303 18.5455 71.3333 16.7879 71.8182 15.1515C71.8182 15.0303 71.8182 14.9697 71.8788 14.8485Z" fill="#7E7E7E"/>
<path d="M82.4849 19.2121C82.9697 18.303 82.9091 17.3939 82.1212 17.0303C81.3333 16.6667 80.6061 17.0909 80.1212 18C79.6364 18.9091 79.697 19.7576 80.4849 20.1818C81.2727 20.6061 82 20.0606 82.4849 19.2121ZM78.4848 17.1515C79.2121 15.5758 81.0909 14.8485 82.6667 15.5758C84.2424 16.303 84.9697 18.1818 84.2424 19.7576V19.8182C84.1818 19.8788 84.1818 19.9394 84.1212 20.0606C83.3939 21.6364 81.5151 22.3636 79.9394 21.6364C78.3636 20.9091 77.6364 19.0303 78.3636 17.4546V17.3939C78.4242 17.2727 78.4848 17.2121 78.4848 17.1515Z" fill="#7E7E7E"/>
<path d="M84 21.2727L85.5152 22.3636C85.2727 22.7879 85.4546 23.2121 85.9394 23.5758C86.2424 23.7576 86.6667 23.9394 86.9091 23.6364C87.1515 23.3333 86.8485 23.0303 86.303 22.4242C85.6364 21.6364 84.7879 20.6061 85.5758 19.5152C86.303 18.4242 87.6364 18.6061 88.7879 19.3939C89.9394 20.1818 90.4849 21.2727 89.7576 22.3636L88.303 21.2727C88.4242 20.9697 88.3636 20.6667 88 20.3636C87.6364 20.0606 87.3333 20.1212 87.2121 20.303C87.0303 20.6061 87.3939 20.9697 88.0606 21.6364C88.6667 22.3636 89.3939 23.3939 88.6061 24.4242C87.8182 25.4545 86.4242 25.3939 85.2121 24.5455C83.8182 23.697 83.2121 22.4848 84 21.2727Z" fill="#7E7E7E"/>
<path d="M92.1212 22L95.6364 25.2727L94.6667 26.3636L92.4242 24.303L91.8788 24.9091L93.697 26.6667L92.7879 27.6364L90.9697 25.9394L90.303 26.6061L92.5454 28.7273L91.5151 29.8788L87.8788 26.5455L92.1212 22Z" fill="#7E7E7E"/>
<path d="M24.1818 91.2121L25.0303 92.1818L25.697 91.0909C25.8788 90.8485 26.1212 90.4243 26.1212 90.4243C26.1212 90.4243 25.6364 90.6667 25.3939 90.7879L24.1818 91.2121ZM27.0909 88.4243L28.303 89.8182L25.0909 95.5758L23.8182 94.1212L24.303 93.2727L22.9697 91.697L22.0606 92.0606L20.9091 90.7273L27.0909 88.4243Z" fill="#7E7E7E"/>
<path d="M29.5151 94.8485L30.303 95.4545C30.7273 95.7576 31.0909 95.7576 31.3333 95.4545C31.5758 95.1515 31.5151 94.7879 31.1515 94.4242L30.3636 93.8182L29.5151 94.8485ZM29.7576 91.5757L32.1818 93.5151C33.1515 94.303 33.6364 95.3939 32.8485 96.4242C32.4242 96.9697 31.7576 97.1515 31.0909 96.9697C31.3333 97.3939 31.3939 97.8788 31.1515 98.303C30.7879 98.9697 30.1818 99.5757 30.303 99.7576L30.2424 99.8182L28.8485 98.7273C28.7879 98.5454 29.3333 98 29.5758 97.4545C29.8182 97.0909 29.7576 96.606 29.3939 96.3636L28.7273 95.8788L27.3939 97.5151L26 96.3636L29.7576 91.5757Z" fill="#7E7E7E"/>
<path d="M32.6667 98.2424C33.3333 96.7273 35.1515 96 36.6667 96.6667H36.7273L36.9091 96.7879C37.4545 97.0303 37.9394 97.4545 38.2424 98C38.6061 98.6667 38.6061 99.5151 38.303 100.182L36.6667 99.3333C36.8485 98.8485 36.6667 98.2424 36.1818 98.0606C35.3939 97.697 34.7273 98.1212 34.2424 99.0303C33.7576 99.9394 33.8788 100.788 34.6061 101.152C35.0909 101.455 35.697 101.273 36 100.788L37.6364 101.636C37.2727 102.182 36.7273 102.606 36.1212 102.788C35.3939 102.97 34.6061 102.909 33.9394 102.485C32.4242 101.758 31.8182 99.9394 32.5455 98.4242C32.5455 98.3636 32.6061 98.303 32.6667 98.2424Z" fill="#7E7E7E"/>
<path d="M39.8788 98.7273L44.7273 100.909L44.1212 102.303L42.4849 101.576L40.6061 105.818L38.9697 105.091L40.8485 100.848L39.2727 100.121L39.8788 98.7273Z" fill="#7E7E7E"/>
<path d="M45.7073 101.176L43.8404 107.069L45.5737 107.618L47.4406 101.725L45.7073 101.176Z" fill="#7E7E7E"/>
<path d="M47.5152 105.091C47.7576 103.455 49.2727 102.303 50.9697 102.545L51.2727 102.606C51.8788 102.727 52.4242 102.97 52.8485 103.394C53.3939 103.939 53.6364 104.727 53.5152 105.515L51.7576 105.152C51.8182 104.606 51.4545 104.121 50.9091 104.061C50.0606 103.879 49.5152 104.485 49.3333 105.515C49.0909 106.485 49.4545 107.333 50.2424 107.455C50.7879 107.576 51.3333 107.273 51.5152 106.727L53.3333 107.091C53.1515 107.697 52.7273 108.242 52.1818 108.606C51.5152 108.97 50.7273 109.091 50 108.909C48.3636 108.667 47.2121 107.091 47.5152 105.455C47.4545 105.333 47.4545 105.212 47.5152 105.091Z" fill="#7E7E7E"/>
<path d="M57.9394 106.485H58.9091C59.2727 106.545 59.6364 106.242 59.6364 105.879V105.818C59.6364 105.455 59.3939 105.151 59.0303 105.091H57.9394V106.485ZM56.2424 103.515L59.0909 103.576C59.7576 103.576 60.3636 103.758 60.8485 104.182C61.2727 104.606 61.5152 105.212 61.5152 105.818C61.5152 106.97 60.6061 107.879 59.4546 107.879H59.3333L57.9394 107.818L57.8788 109.697L56.0606 109.636L56.2424 103.515Z" fill="#7E7E7E"/>
<path d="M64 106.182L64.9697 106.061C65.5151 106 65.7576 105.758 65.697 105.333C65.6364 104.909 65.3939 104.727 64.8485 104.727L63.8788 104.848L64 106.182ZM61.9394 103.636L64.9697 103.333C66.2424 103.212 67.3333 103.697 67.5151 104.909C67.5758 105.576 67.2727 106.182 66.6667 106.485C67.1515 106.606 67.5152 106.97 67.6364 107.394C67.8788 108.121 67.8182 109.03 68.0606 109.091V109.212L66.303 109.394C66.1212 109.273 66.1212 108.545 65.9394 108C65.8788 107.576 65.4545 107.333 65.0303 107.394L64.1818 107.455L64.4242 109.576L62.6061 109.758L61.9394 103.636Z" fill="#7E7E7E"/>
<path d="M72.6667 105.03C72.4242 104.061 71.8182 103.394 70.9697 103.636C70.1212 103.879 69.8788 104.727 70.1212 105.697C70.3636 106.667 70.9697 107.333 71.8182 107.091C72.6667 106.848 72.9091 106 72.6667 105.03ZM68.3636 106.121C68 104.424 69.0303 102.727 70.7273 102.364C72.4242 102 74.1212 103.03 74.4848 104.727C74.8485 106.424 73.8182 108.061 72.1818 108.485C70.5455 108.97 68.9091 108 68.4242 106.424C68.4242 106.303 68.3636 106.242 68.3636 106.121Z" fill="#7E7E7E"/>
<path d="M80.4848 104.727C80.303 105.394 79.8182 105.939 79.1515 106.182C78.4848 106.485 77.6364 106.485 76.9697 106.242C76.1818 105.879 75.5152 105.212 75.2121 104.364C74.4848 102.667 75.0303 100.909 76.7879 100.182C78.303 99.5758 79.5757 99.9394 80.2424 101.152L78.6061 101.818C78.303 101.455 77.8182 101.333 77.3939 101.576C76.6061 101.939 76.4848 102.727 76.8485 103.697C77.2121 104.606 78 105.152 78.7879 104.788C79.2727 104.667 79.5758 104.182 79.5151 103.636L78.7879 103.939L78.303 102.788L80.6667 101.818L81.9394 104.909L80.8485 105.394L80.4848 104.727Z" fill="#7E7E7E"/>
<path d="M83.1515 100.182L84 99.697C84.4242 99.4546 84.6061 99.0909 84.3636 98.7273C84.1212 98.3636 83.8182 98.303 83.3333 98.5455L82.4849 99.0303L83.1515 100.182ZM80.2424 98.7879L82.9091 97.2121C84 96.5455 85.2121 96.4849 85.8788 97.5758C86.2424 98.1212 86.1818 98.8485 85.8182 99.394C86.303 99.2727 86.7879 99.4546 87.0909 99.8182C87.6364 100.364 87.9394 101.212 88.1818 101.152L88.2424 101.212L86.7273 102.121C86.5455 102.121 86.1818 101.394 85.7576 101.03C85.5152 100.667 85.0303 100.606 84.6667 100.848H84.6061L83.8788 101.273L84.9697 103.091L83.3939 104L80.2424 98.7879Z" fill="#7E7E7E"/>
<path d="M89.4546 97.4546L90.4242 96.6667L89.3333 96L88.6667 95.5152C88.6667 95.5152 88.9091 96 88.9697 96.303L89.4546 97.4546ZM86.7879 94.4849L88.2424 93.3333L93.9394 96.6667L92.4242 97.8788L91.6364 97.3333L90 98.6667L90.3636 99.5758L88.9697 100.727L86.7879 94.4849Z" fill="#7E7E7E"/>
<path d="M89.8788 91.9394L91.4545 90.2424L94.6667 91.8788V91.8182L92.7879 88.7879L94.3636 87.0303L98.9091 91.2121L97.8182 92.4242L94.9697 89.8182L97.0909 93.2121L96.2424 94.1818L92.6667 92.303V92.3636L95.5152 94.9697L94.4242 96.1212L89.8788 91.9394Z" fill="#7E7E7E"/>
</g>
<defs>
<clipPath id="clip0_27_20">
<rect width="120" height="120" fill="white"/>
</clipPath>
</defs>
</svg>
