<svg width="120" height="120" viewBox="0 0 120 120" fill="none" xmlns="http://www.w3.org/2000/svg">
<g clip-path="url(#clip0_33_113)">
<path fill-rule="evenodd" clip-rule="evenodd" d="M-0.000183105 2.68217e-05H120V120H-0.000183105V2.68217e-05ZM68.2802 96.6299H77.511V19.4919L68.2802 31.5799V96.6299ZM23.8889 68.2792V77.5079H65.202V68.2792H23.8889ZM80.5891 68.2792V77.5079H95.0907V68.2792H80.5891ZM55.9734 80.586V108.936H65.202V80.586H55.9734ZM68.2802 99.7046V108.936H88.9378V99.7046H68.2802ZM43.6666 99.7046H52.8986V108.936H43.6666V99.7046ZM52.8986 31.1529L26.2927 65.2011H38.0051L52.8986 46.1449V31.1529ZM55.9734 27.2134V65.2011H65.202V15.4002L55.9734 27.2134ZM68.2802 11.4596V26.4538L77.511 14.6362L70.2352 8.95946L68.2802 11.4596Z" fill="#7E7E7E"/>
</g>
<defs>
<clipPath id="clip0_33_113">
<rect width="120" height="120" fill="white"/>
</clipPath>
</defs>
</svg>
