<svg width="120" height="120" viewBox="0 0 120 120" fill="none" xmlns="http://www.w3.org/2000/svg">
<g clip-path="url(#clip0_25_17)">
<path d="M60 120C93.1371 120 120 93.1371 120 60C120 26.8629 93.1371 0 60 0C26.8629 0 0 26.8629 0 60C0 93.1371 26.8629 120 60 120Z" fill="#9F9F9F"/>
<path d="M60.948 29.052C67.572 29.052 71.292 30.132 71.292 30.132L82.296 52.596L82.2 52.692L68.04 44.244C59.832 39.36 53.88 36.792 49.032 36.984C43.908 37.08 40.836 41.208 40.836 47.184C41.016 62.484 55.56 81.324 70.008 81.324C75.9 81.324 78.972 79.428 80.772 77.136L59.376 53.676V53.58H88.752C89.148 55.68 89.376 57.816 89.4 59.952C89.4 77.124 76.26 90.948 60.048 90.948C43.764 90.948 30.6 77.124 30.6 59.952C30.576 42.876 43.716 29.052 60.948 29.052Z" fill="#1C1B18"/>
</g>
<defs>
<clipPath id="clip0_25_17">
<rect width="120" height="120" fill="white"/>
</clipPath>
</defs>
</svg>
