<svg width="120" height="51" viewBox="0 0 120 51" fill="none" xmlns="http://www.w3.org/2000/svg">
<path fill-rule="evenodd" clip-rule="evenodd" d="M119.679 49.246V0.935791H0.320892V49.246H119.679Z" fill="#969696"/>
<path fill-rule="evenodd" clip-rule="evenodd" d="M11.9927 5.59607H24.9664L32.9354 32.5622H33.0455L38.5044 5.59607H48.3106L40.0705 44.4832H27.1403L19.0103 17.5755H18.9002L13.4929 44.4832H3.68674L11.9927 5.59607ZM52.1518 5.59607H62.5645L59.5063 20.4734H71.8137L74.8807 5.59607H85.2934L77.2156 44.4832H66.803L70.2558 27.8279H57.9402L54.4867 44.4832H44.0727L52.1518 5.59607ZM112.7 14.3998C110.694 13.4558 107.964 12.6218 104.123 12.6218C100.003 12.6218 96.6588 13.2297 96.6588 16.3537C96.6588 21.8636 111.756 19.8072 111.756 31.6188C111.756 42.3683 101.78 45.1555 92.7578 45.1555C88.7482 45.1555 84.1225 44.2047 80.7282 43.1432L83.1792 35.2339C85.235 36.5739 89.3621 37.4649 92.7578 37.4649C95.9933 37.4649 101.056 36.851 101.056 32.8406C101.056 26.5986 85.9596 28.9396 85.9596 17.9708C85.9596 7.93844 94.7633 4.93051 103.289 4.93051C108.081 4.93051 112.59 5.43512 115.21 6.6569L112.7 14.3998Z" fill="white"/>
</svg>
