<svg width="120" height="43" viewBox="0 0 120 43" fill="none" xmlns="http://www.w3.org/2000/svg">
<g clip-path="url(#clip0_28_92)">
<path d="M13.2369 42.7493C9.66139 42.6073 6.73609 41.6289 4.44875 39.8117C4.01222 39.4646 2.97202 38.4238 2.62304 37.9848C1.69549 36.8185 1.06488 35.6834 0.644264 34.424C-0.65002 30.5473 0.0161018 25.4601 2.54957 19.8771C4.71875 15.0973 8.06589 10.3567 13.9055 3.79099C14.7657 2.82485 17.3273 -0.000640869 17.3438 -0.000640869C17.35 -0.000640869 17.2104 0.241194 17.0346 0.535686C15.5163 3.07894 14.2171 6.07464 13.5093 8.66812C12.3724 12.8295 12.5096 16.4008 13.911 19.1699C14.8777 21.0777 16.5351 22.7301 18.3987 23.6436C21.6614 25.2422 26.4381 25.3744 32.2716 24.0305C32.6732 23.9375 52.5748 18.6544 76.4976 12.2902C100.42 5.92526 119.997 0.721806 120 0.72609C120.007 0.73161 64.4205 24.5173 35.5648 36.8571C30.995 38.8107 29.773 39.3042 27.6246 40.0585C22.1328 41.987 17.2134 42.9073 13.2369 42.7493Z" fill="#7E7E7E"/>
</g>
<defs>
<clipPath id="clip0_28_92">
<rect width="120" height="42.7668" fill="white"/>
</clipPath>
</defs>
</svg>
