<svg width="494" height="90" viewBox="0 0 494 90" fill="none" xmlns="http://www.w3.org/2000/svg">
<g clip-path="url(#clip0_13_130)">
<path d="M0.64325 44.991V89.5461H44.8301H89.017V44.991V0.435857H44.8301H0.64325V44.991ZM83.8619 44.991V85.1274H71.0477H58.2335L57.718 82.9917C57.4971 81.887 57.3498 79.3831 57.4971 77.4684C57.718 74.1543 57.7916 74.0807 60.1483 74.0807H62.5049V56.7742V39.4676H45.7139H28.8492L28.4074 47.7158C28.1128 52.2818 27.8918 60.0882 27.8918 65.0224V74.0807H30.4694H33.047V79.6041V85.1274H19.0545H5.06194V44.991V4.85455H44.4619H83.8619V44.991ZM52.4892 47.1267C55.8769 49.6306 57.4971 52.7973 57.4971 56.7742C57.6443 65.0224 51.1636 70.3985 42.9154 68.8519C31.8687 66.7899 29.512 52.0609 39.2331 45.9484C42.6208 43.8863 48.9543 44.4018 52.4892 47.1267Z" fill="#7E7E7E"/>
<path d="M37.9812 20.099L30.9113 33.2078L44.9774 33.4288C52.7101 33.5024 59.1909 33.4288 59.3382 33.2815C59.6327 32.9869 46.7449 8.83137 45.6402 7.57941C45.3456 7.28483 41.8843 12.8818 37.9812 20.099Z" fill="#7E7E7E"/>
<path d="M26.4189 36.5218C26.4189 37.9211 26.9345 37.9947 45.1984 37.9947C63.4623 37.9947 63.9778 37.9211 63.9778 36.5218C63.9778 35.1226 63.4623 35.0489 45.1984 35.0489C26.9345 35.0489 26.4189 35.1226 26.4189 36.5218Z" fill="#7E7E7E"/>
<path d="M145.355 36.3009C130.921 70.2512 130.185 71.7241 126.502 73.197C124.956 73.7861 123.63 74.7435 123.63 75.3327C123.63 76.0691 125.766 76.29 133.94 76.29C141.673 76.29 144.251 76.0691 144.251 75.3327C144.251 74.8908 142.704 73.9334 140.716 73.3442C136.223 71.8713 136.076 70.5457 139.685 61.9293L142.483 55.3013H154.561H166.565L168.922 60.9719C173.046 70.693 172.899 72.9024 168.185 73.7861C166.712 74.007 165.608 74.6699 165.608 75.259C165.608 76.0691 167.964 76.29 178.496 76.29C189.542 76.29 191.383 76.1427 191.383 75.1854C191.383 74.5226 190.426 73.8598 189.1 73.5652C185.639 72.9024 182.988 69.5884 179.674 61.782C178.054 57.8052 172.604 44.77 167.596 32.8396C161.925 19.4362 158.096 11.0407 157.359 10.8934C156.549 10.7461 153.383 17.5215 145.355 36.3009ZM164.577 51.0299C164.429 51.1771 159.863 51.1771 154.414 51.1035L144.472 50.8826L149.627 38.8785L154.782 26.8744L159.79 38.8048C162.588 45.4329 164.724 50.8826 164.577 51.0299Z" fill="#7E7E7E"/>
<path d="M207.291 12.8818C206.407 14.2811 207.585 15.1648 210.457 15.1648C212.372 15.1648 213.698 15.6804 214.655 16.7114C215.981 18.1843 216.054 19.8781 216.275 42.708C216.423 58.3944 216.275 68.0418 215.76 69.7357C214.876 72.6078 212.593 74.0807 209.058 74.0807C207.512 74.0807 206.849 74.4489 206.849 75.259C206.849 76.2901 209.132 76.3637 228.427 76.1428C249.195 75.9218 250.078 75.8482 253.834 74.1544C263.04 70.0302 267.238 60.0145 263.113 51.9136C261.714 49.1888 257.516 45.6538 254.35 44.6228L251.625 43.739L254.423 42.1188C255.97 41.2351 258.253 39.0994 259.505 37.4056C261.42 34.6071 261.714 33.576 261.641 29.4519C261.641 25.4015 261.272 24.2232 259.431 21.5719C256.78 17.8161 253.54 15.5331 248.532 13.9865C243.818 12.44 208.101 11.4826 207.291 12.8818ZM242.787 17.7424C248.237 20.099 251.036 24.0759 251.036 29.7465C251.036 34.1652 248.9 37.6265 245.07 39.6149C241.904 41.2351 234.245 42.1188 229.384 41.3824L225.996 40.8669V29.1574C225.996 20.5409 226.217 17.3742 226.954 17.1532C229.163 16.2695 240.136 16.7114 242.787 17.7424ZM243.156 46.8321C248.532 48.3787 253.245 54.2702 253.245 59.4254C253.245 64.065 250.52 67.9682 245.512 70.6194C242.346 72.2396 234.245 72.6815 228.795 71.6504L225.996 71.0613V58.6889C225.996 51.9136 226.217 46.0957 226.586 45.8011C227.248 44.991 239.547 45.8011 243.156 46.8321Z" fill="#7E7E7E"/>
<path d="M291.246 12.8082C291.098 13.1028 290.657 16.9323 290.362 21.2773C289.92 27.8317 290.067 29.1573 290.951 29.1573C291.54 29.1573 292.498 27.3899 293.381 24.5914C295.664 17.4478 296.475 17.0796 311.424 16.785C318.347 16.5641 323.944 16.7114 323.944 17.0059C323.944 17.2269 315.033 30.1884 304.06 45.7274C293.161 61.3401 284.176 74.5226 284.176 75.1854C284.176 76.1427 287.269 76.29 310.246 76.29H336.316L337.495 69.4411C339.189 60.0145 339.189 58.9835 338.01 58.9835C337.495 58.9835 336.39 60.6773 335.58 62.813C333.812 67.6736 330.204 70.914 326.006 71.5031C324.239 71.7241 317.169 71.8713 310.246 71.7241L297.653 71.5031L318.126 42.2661C329.32 26.2116 338.305 12.8818 338.084 12.6609C337.495 11.9981 291.688 12.1454 291.246 12.8082Z" fill="#7E7E7E"/>
<path d="M357.232 13.471C357.379 14.4284 358.41 14.9439 360.619 15.2385C362.313 15.4594 364.154 16.0486 364.67 16.5641C365.332 17.2269 365.627 24.0022 365.774 43.0026C365.922 57.0687 365.774 69.2938 365.553 70.1775C365.112 72.0923 361.724 74.0807 358.925 74.0807C357.747 74.0807 357.084 74.5226 357.084 75.1854C357.084 76.1427 360.325 76.29 381.682 76.29H406.205L408.93 68.7046C410.403 64.5805 411.581 60.9719 411.581 60.6037C411.581 59.2044 408.783 60.3091 407.973 62.0029C406.5 65.2433 403.48 68.8519 400.756 70.4721C398.399 71.945 397.073 72.0923 388.015 72.1659C380.503 72.2396 377.631 72.0186 376.747 71.2085C375.643 70.3248 375.495 68.4837 375.495 57.8052V45.3592H384.333C389.193 45.3592 393.907 45.7274 394.864 46.1693C396.926 47.1267 398.325 49.7043 398.325 52.3555C398.325 53.6811 398.694 54.1966 399.798 54.1966C401.271 54.1966 401.271 53.8284 401.124 42.9289C400.903 33.6497 400.756 31.7349 399.798 31.7349C399.135 31.7349 398.546 32.7659 398.252 34.5334C397.368 39.8358 395.895 40.5723 385.069 40.7932L375.495 41.0878V28.8628V16.6377H386.542C399.504 16.6377 401.197 17.1532 403.039 21.7929C403.701 23.413 404.217 25.2542 404.217 25.8433C404.217 26.5061 404.88 26.948 405.763 26.948C407.236 26.948 407.31 26.6534 406.868 23.0448C406.647 20.9828 406.426 17.6688 406.426 15.6803V12.219H381.682C358.557 12.219 357.011 12.2927 357.232 13.471Z" fill="#7E7E7E"/>
<path d="M428.962 12.8818C428.078 14.2811 429.183 15.1648 431.76 15.1648C433.159 15.1648 435 15.8276 435.958 16.5641L437.725 17.9633V44.2545V70.5457L435.663 72.3132C434.338 73.4179 432.644 74.0807 431.024 74.0807C429.256 74.0807 428.52 74.4489 428.52 75.1854C428.52 76.1427 431.024 76.29 446.415 76.29C466.373 76.29 470.645 75.6272 478.009 71.7241C494.432 62.9603 498.261 36.3745 485.153 22.1611C477.862 14.2811 473.001 12.9555 448.33 12.44C434.706 12.1454 429.33 12.219 428.962 12.8818ZM467.993 19.5835C473.149 22.0874 476.831 25.9906 479.482 31.8086C480.955 34.9016 481.176 36.6691 481.176 44.2545C481.176 54.933 479.629 59.5727 474.474 64.8751C469.687 69.8093 464.164 72.1659 457.241 72.1659C454.222 72.1659 450.834 71.945 449.656 71.6504L447.667 71.1349L447.815 44.4018L448.036 17.7424L450.245 17.2269C451.497 16.9323 454.885 16.8587 457.904 17.0059C462.102 17.2269 464.385 17.816 467.993 19.5835Z" fill="#7E7E7E"/>
</g>
<defs>
<clipPath id="clip0_13_130">
<rect width="493.291" height="90" fill="white"/>
</clipPath>
</defs>
</svg>
