<svg width="596" height="90" viewBox="0 0 596 90" fill="none" xmlns="http://www.w3.org/2000/svg">
<g clip-path="url(#clip0_17_9)">
<path d="M15 3.34558C11.5385 14.8846 -0.230729 82.2687 0.923002 85.0379C1.84619 87.1148 4.38454 88.2692 7.38466 87.8071C11.9999 87.1148 13.1538 84.8077 16.3847 68.6544L19.8462 50.1923L35.7693 49.5C51.2308 48.8077 55.3846 46.961 55.3846 40.2698C55.3846 38.4231 50.7692 37.5006 40.3845 37.5006H25.3847V29.6533C25.3847 14.8846 26.077 14.4225 48.4615 14.4225C69.2308 14.4225 71.5386 13.5 71.5386 3.8077C71.5386 -0.576342 16.6154 -1.03845 15 3.34558Z" fill="#7E7E7E"/>
<path d="M153.922 4.5C153.23 6.80711 151.615 14.4225 150.231 21.3456C148.846 28.2686 145.615 44.1917 143.077 56.6533C136.847 87.1148 136.847 88.7314 144.692 87.8071C150.693 87.1148 151.385 85.9621 155.077 68.6544C163.847 28.2687 165.924 17.6538 166.616 9.80827C167.308 2.65327 166.616 1.73076 161.077 1.03846C156.924 0.576341 154.615 1.50057 153.922 4.5Z" fill="#7E7E7E"/>
<path d="M258.693 5.65441C254.307 17.1917 242.308 84.5775 244.154 86.4225C245.307 87.5769 258.001 88.039 272.539 87.8071L298.847 87.1148L299.539 80.6538L300.231 74.4231H281.539C260.538 74.4231 259.615 73.5006 262.615 59.4225L264.462 50.1923L280.385 49.5C295.846 48.8077 299.769 46.9609 299.999 40.2698C299.999 38.4231 295.385 37.5006 285.001 37.5006C267.923 37.5006 266.308 35.884 269.308 23.4225L271.385 15.5769L292.154 14.4225C312.461 13.2698 312.693 13.2698 313.385 6.80711L314.077 0.57634H287.308C261.692 0.57634 260.538 0.80826 258.693 5.65441Z" fill="#7E7E7E"/>
<path d="M396.923 22.9621C387.462 66.3456 385.615 75.5775 384.923 81.3461L384.231 87.1148L409.154 87.8071L433.847 88.4994L436.154 82.5006C437.538 79.039 438.461 76.0379 438.461 75.3456C438.461 74.8852 430.846 74.4231 421.385 74.4231C411.923 74.4231 403.615 73.5006 402.693 72.3461C402.001 71.1917 404.078 58.2698 407.077 43.9615C410.076 29.6533 413.078 14.1923 413.538 9.80826C414.23 2.65326 413.538 1.73076 407.999 1.03845C402.001 0.346141 401.769 0.808255 396.923 22.9621Z" fill="#7E7E7E"/>
<path d="M531 10.961C526.616 28.2686 516.924 78.5769 516.924 83.8852C516.924 88.4994 517.846 88.7313 539.538 87.8071C569.307 86.8846 578.077 82.7308 586.847 64.961C595.385 48.1154 597.924 22.0379 592.153 13.2698C586.154 4.03788 575.078 0.57634 553.154 0.57634H533.539L531 10.961ZM575.77 17.884C582.693 24.5769 583.153 34.039 577.847 50.4225C573.001 64.5006 567 71.4236 556.385 74.4231C536.769 79.7313 532.847 77.1923 535.616 60.5769C539.77 35.4236 542.999 20.1929 545.076 16.039C548.308 9.57634 568.615 10.5006 575.77 17.884Z" fill="#7E7E7E"/>
</g>
<defs>
<clipPath id="clip0_17_9">
<rect width="595.385" height="90" fill="white"/>
</clipPath>
</defs>
</svg>
