<svg width="480" height="120" viewBox="0 0 480 120" fill="none" xmlns="http://www.w3.org/2000/svg">
<mask id="mask0_2_3" style="mask-type:luminance" maskUnits="userSpaceOnUse" x="0" y="2" width="480" height="117">
<path d="M480 1.99991H0V118.521H480V1.99991Z" fill="white"/>
</mask>
<g mask="url(#mask0_2_3)">
<path fill-rule="evenodd" clip-rule="evenodd" d="M0 86.0387V42.9985H5.04587V85.6055C5.04587 90.0834 7.10773 92.538 11.3007 92.538C12.6515 92.538 13.9308 92.2487 14.7123 91.8881L15.0673 96.1484C13.6461 96.6543 12.0118 96.9433 10.5193 96.9433C3.69619 96.9433 0 92.8273 0 86.0387Z" fill="#7E7E7E"/>
<path fill-rule="evenodd" clip-rule="evenodd" d="M22.1509 77.1237C22.1509 77.7041 22.1509 78.2125 22.2216 78.72L48.7367 73.494C47.6646 67.2499 42.7333 62.5314 35.8007 62.5314C27.796 62.5314 22.1509 68.485 22.1509 77.1237ZM48.594 87.36L51.4532 90.6998C48.0935 94.765 42.9477 96.943 37.0165 96.943C25.2961 96.943 17.2196 88.8117 17.2196 77.4862C17.2196 66.1611 25.0099 58.1028 35.8007 58.1028C45.8788 58.1028 53.4534 65.5806 53.8115 76.3254L22.9377 82.4236C24.7955 88.5938 30.0837 92.3694 37.0882 92.3694C41.7332 92.3694 45.8068 90.6998 48.594 87.36Z" fill="#7E7E7E"/>
<path fill-rule="evenodd" clip-rule="evenodd" d="M93.924 77.4862C93.924 68.5566 87.8182 62.6043 79.7495 62.6043C71.6078 62.6043 65.502 68.5566 65.502 77.4862C65.502 86.4158 71.6078 92.3694 79.7495 92.3694C87.8182 92.3694 93.924 86.4158 93.924 77.4862ZM99.0126 58.3933V96.5804H94.0702V89.0293C90.9442 94.1845 85.6374 96.943 79.3134 96.943C68.4098 96.943 60.2684 89.0293 60.2684 77.4862C60.2684 65.9432 68.4098 58.1028 79.3134 58.1028C85.4195 58.1028 90.6531 60.7162 93.852 65.6523V58.3933H99.0126Z" fill="#7E7E7E"/>
<path fill-rule="evenodd" clip-rule="evenodd" d="M131.3 58.1028V62.8784C130.86 62.8784 130.423 62.8086 130.058 62.8086C122.016 62.8086 117.118 67.6541 117.118 76.2366V94.7852H111.928V58.38H116.9V65.508C119.311 60.6629 124.209 58.1028 131.3 58.1028Z" fill="#7E7E7E"/>
<path fill-rule="evenodd" clip-rule="evenodd" d="M174.351 73.6756V94.7852H169.298V74.1603C169.298 66.4769 165.171 62.5326 158.056 62.5326C150.015 62.5326 144.963 67.3769 144.963 75.6824V94.7852H139.911V58.38H144.75V65.0927C147.454 60.6629 152.505 58.1028 158.98 58.1028C168.088 58.1028 174.351 63.2239 174.351 73.6756Z" fill="#7E7E7E"/>
<path fill-rule="evenodd" clip-rule="evenodd" d="M347.915 77.4862C347.915 68.5566 341.811 62.6043 333.742 62.6043C325.601 62.6043 319.494 68.5566 319.494 77.4862C319.494 86.4158 325.601 92.3694 333.742 92.3694C341.811 92.3694 347.915 86.4158 347.915 77.4862ZM353.005 58.3933V96.5804H348.063V89.0293C344.937 94.1845 339.628 96.943 333.306 96.943C322.402 96.943 314.26 89.0293 314.26 77.4862C314.26 65.9432 322.402 58.1028 333.306 58.1028C339.411 58.1028 344.643 60.7162 347.842 65.6523V58.3933H353.005Z" fill="#7E7E7E"/>
<path fill-rule="evenodd" clip-rule="evenodd" d="M426.189 73.6756V94.7852H421.257V74.1603C421.257 66.4769 417.369 62.5326 410.776 62.5326C403.276 62.5326 398.552 67.3769 398.552 75.6824V94.7852H393.625V74.1603C393.625 66.4769 389.735 62.5326 383.072 62.5326C375.641 62.5326 370.85 67.3769 370.85 75.6824V94.7852H365.921V58.38H370.642V65.0242C373.209 60.6629 377.93 58.1028 384.041 58.1028C390.082 58.1028 394.806 60.6629 397.026 65.7853C399.663 61.0791 404.871 58.1028 411.467 58.1028C420.357 58.1028 426.189 63.2239 426.189 73.6756Z" fill="#7E7E7E"/>
<path fill-rule="evenodd" clip-rule="evenodd" d="M474.84 77.2007C474.84 68.4745 468.66 62.538 460.592 62.538C452.451 62.538 446.343 68.4745 446.343 77.2007C446.343 85.9986 452.451 91.8644 460.592 91.8644C468.66 91.8644 474.84 85.9986 474.84 77.2007ZM480 77.2007C480 88.6456 471.859 96.3708 460.955 96.3708C454.85 96.3708 449.615 93.7958 446.416 88.9323V109.89H441.256V58.3892H446.198V65.8276C449.324 60.8204 454.629 58.1028 460.955 58.1028C471.859 58.1028 480 65.8276 480 77.2007Z" fill="#7E7E7E"/>
<path fill-rule="evenodd" clip-rule="evenodd" d="M236.931 90.0973H256.894V82.9216L258.472 82.1015C267.188 77.5712 272.605 68.6779 272.605 58.8944C272.605 44.4685 260.832 32.7322 246.36 32.7322C231.89 32.7322 220.117 44.4685 220.117 58.8944C220.117 68.9984 226.055 78.3006 235.242 82.5935L236.931 83.3823V90.0973ZM262.759 95.9425H231.067V87.0376C220.794 81.4737 214.253 70.6263 214.253 58.8944C214.253 41.2459 228.657 26.8868 246.36 26.8868C264.065 26.8868 278.469 41.2459 278.469 58.8944C278.469 70.2638 272.494 80.6482 262.759 86.4108V95.9425Z" fill="#7E7E7E"/>
<path fill-rule="evenodd" clip-rule="evenodd" d="M258.223 108.573C258.223 116.26 246.913 118.016 246.913 118.016C246.913 118.016 235.602 116.26 235.602 108.573H258.223Z" fill="#7E7E7E"/>
<path fill-rule="evenodd" clip-rule="evenodd" d="M231.066 105.18H262.758V99.3351H231.066V105.18Z" fill="#7E7E7E"/>
<path fill-rule="evenodd" clip-rule="evenodd" d="M256.902 56.6078L249.516 55.0165C249.401 54.9916 249.333 54.8741 249.37 54.763L254.344 39.4576C254.411 39.2539 254.147 39.1048 254.006 39.2678L234.989 61.1747C234.891 61.2891 234.95 61.4662 235.098 61.4975L242.484 63.0887C242.599 63.1137 242.667 63.2312 242.63 63.3423L237.656 78.6474C237.589 78.8526 237.853 79.0004 237.994 78.8375L257.011 56.9305C257.109 56.8162 257.05 56.6391 256.902 56.6078Z" fill="#7E7E7E"/>
<path fill-rule="evenodd" clip-rule="evenodd" d="M246.36 18.3768C245.065 18.3768 244.015 17.3292 244.015 16.0389V4.40294C244.015 3.11151 245.065 2.0639 246.36 2.0639C247.656 2.0639 248.707 3.11151 248.707 4.40294V16.0389C248.707 17.3292 247.656 18.3768 246.36 18.3768Z" fill="#7E7E7E"/>
<path fill-rule="evenodd" clip-rule="evenodd" d="M300.864 61.0718H289.192C287.896 61.0718 286.846 60.0253 286.846 58.7337C286.846 57.4421 287.896 56.3956 289.192 56.3956H300.864C302.159 56.3956 303.209 57.4421 303.209 58.7337C303.209 60.0253 302.159 61.0718 300.864 61.0718Z" fill="#7E7E7E"/>
<path fill-rule="evenodd" clip-rule="evenodd" d="M203.532 61.0718H191.86C190.564 61.0718 189.514 60.0253 189.514 58.7337C189.514 57.4421 190.564 56.3956 191.86 56.3956H203.532C204.827 56.3956 205.877 57.4421 205.877 58.7337C205.877 60.0253 204.827 61.0718 203.532 61.0718Z" fill="#7E7E7E"/>
<path fill-rule="evenodd" clip-rule="evenodd" d="M276.646 30.8819C276.045 30.8819 275.446 30.6542 274.987 30.1968C274.071 29.284 274.071 27.8027 274.987 26.89L283.242 18.6623C284.158 17.7506 285.642 17.7496 286.559 18.6634C287.475 19.5761 287.475 21.0563 286.559 21.9702L278.304 30.1978C277.846 30.6542 277.246 30.8819 276.646 30.8819Z" fill="#7E7E7E"/>
<path fill-rule="evenodd" clip-rule="evenodd" d="M207.823 99.4892C207.222 99.4892 206.623 99.2618 206.164 98.8042C205.249 97.8916 205.249 96.4102 206.164 95.4985L214.418 87.2706C215.334 86.3571 216.818 86.3571 217.735 87.2706C218.651 88.1836 218.651 89.6649 217.735 90.5766L209.481 98.8042C209.023 99.2618 208.423 99.4892 207.823 99.4892Z" fill="#7E7E7E"/>
<path fill-rule="evenodd" clip-rule="evenodd" d="M284.901 99.4898C284.3 99.4898 283.701 99.2621 283.242 98.8058L274.987 90.5782C274.071 89.6653 274.071 88.1839 274.987 87.2713C275.904 86.3574 277.389 86.3586 278.304 87.2703L286.559 95.4979C287.475 96.4105 287.475 97.8919 286.559 98.8049C286.101 99.2621 285.501 99.4898 284.901 99.4898Z" fill="#7E7E7E"/>
<path fill-rule="evenodd" clip-rule="evenodd" d="M216.075 30.8814C215.475 30.8814 214.875 30.6537 214.416 30.1963L206.163 21.9686C205.247 21.0559 205.247 19.5756 206.163 18.6629C207.08 17.7491 208.564 17.7491 209.48 18.6629L217.733 26.8895C218.649 27.8022 218.649 29.2835 217.733 30.1963C217.275 30.6537 216.675 30.8814 216.075 30.8814Z" fill="#7E7E7E"/>
</g>
</svg>
