<svg width="456" height="90" viewBox="0 0 456 90" fill="none" xmlns="http://www.w3.org/2000/svg">
<g clip-path="url(#clip0_8_81)">
<path d="M71.9504 7.39102C67.1301 12.2113 62.3099 23.4585 59.0964 37.9192C50.42 76.481 52.9908 89.9777 68.7369 89.9777C83.1976 89.9777 91.5527 77.4451 98.6223 45.3102C104.728 17.6742 105.049 14.4607 100.55 7.71237C94.1235 -2.24944 81.5908 -2.24944 71.9504 7.39102ZM88.9819 21.5304C88.9819 26.672 86.4111 40.49 83.5189 53.0226C79.6628 69.09 76.4493 75.8383 72.2717 76.481C65.2021 77.7664 65.2021 70.0541 71.629 41.7754C78.056 14.1393 78.6987 12.854 84.483 12.854C87.6965 12.854 89.3032 15.7461 88.9819 21.5304Z" fill="#7E7E7E"/>
<path d="M121.117 9.31912C109.227 21.5304 109.227 29.2427 122.081 49.1664C129.793 61.3776 131.4 66.1979 128.829 70.3754C123.688 78.4091 115.011 78.7305 115.011 71.0181C115.011 66.5192 113.083 64.2698 108.584 64.2698C103.764 64.2698 102.157 66.5192 102.157 73.2675C102.157 84.5148 107.299 89.9777 118.546 89.9777C130.757 89.9777 140.719 80.6586 142.647 67.4833C144.254 58.4855 142.647 53.3439 134.613 41.7754C123.366 25.0652 122.724 21.8517 129.793 15.7461C134.292 12.2113 135.577 12.2113 139.112 17.0315C143.611 23.4585 153.573 24.4225 153.573 18.3169C153.573 10.9259 143.611 -1.90735e-06 137.184 -1.90735e-06C133.649 -1.90735e-06 126.258 4.17753 121.117 9.31912Z" fill="#7E7E7E"/>
<path d="M256.083 9.31911C244.193 21.5304 244.193 29.2427 257.047 49.1664C264.76 61.3776 266.366 66.1979 263.796 70.3754C258.654 78.4091 249.978 78.7305 249.978 70.6968C249.978 61.0563 239.052 63.6271 237.766 73.2675C235.196 90.6204 257.047 96.0833 270.865 81.944C281.148 71.9822 281.47 56.8788 271.187 43.7034C260.582 29.2427 258.333 20.8877 264.76 15.7461C269.259 12.2113 270.544 12.2113 274.079 17.0315C279.22 24.4225 288.54 24.1012 288.54 16.7101C288.54 9.31911 278.899 -4.00574e-06 271.187 -4.00574e-06C267.973 -4.00574e-06 261.225 4.17753 256.083 9.31911Z" fill="#7E7E7E"/>
<path d="M17.6424 5.46293C16.6783 7.06967 12.8222 23.7798 8.96597 43.0607C5.10979 62.3417 1.2536 80.3372 0.289554 82.908C-0.995842 86.1215 0.610903 87.0855 6.07383 86.1215C12.1795 85.4788 14.1076 82.2653 16.9997 69.09C19.8918 53.9866 20.8559 53.0226 31.4604 51.4158C40.4582 50.1304 43.993 47.5596 48.1705 38.5619C54.9189 25.3866 55.5616 12.5326 50.0986 7.06967C45.9211 2.89213 19.8918 1.60674 17.6424 5.46293ZM37.566 15.7461C43.993 19.9236 35.9593 41.7754 27.9256 41.7754C24.7121 41.7754 24.0694 30.8495 26.9615 19.9236C29.211 12.2113 30.8177 11.5686 37.566 15.7461Z" fill="#7E7E7E"/>
<path d="M158.715 8.03371C157.429 11.2472 159.036 12.8539 163.213 12.8539C171.247 12.8539 171.247 16.7101 163.213 51.4158C155.501 85.4788 155.501 86.7642 162.892 86.7642C168.998 86.7642 171.247 79.3732 181.852 27.3146C183.78 17.6742 186.029 14.1393 191.171 13.4966C195.027 12.8539 198.883 10.2832 199.847 7.71236C201.133 4.17752 197.598 3.21348 181.209 3.21348C165.784 3.21348 160.321 4.49887 158.715 8.03371Z" fill="#7E7E7E"/>
<path d="M217.843 9.64047C217.843 15.1034 216.236 15.7461 209.809 14.1394C199.847 11.5686 198.883 17.9955 208.845 21.209L215.593 23.1371L208.202 28.9214C203.382 32.7776 202.097 35.027 204.667 36.6338C206.917 37.9192 211.094 35.6697 214.629 31.4922L220.735 24.1012L221.056 31.1708C221.056 38.8832 225.555 41.1327 229.09 35.3484C230.375 33.4203 229.733 29.8854 227.805 27.636C224.912 24.1012 225.877 22.8158 232.303 21.209C236.802 19.9236 240.337 17.6742 240.337 15.7461C240.337 13.4967 237.124 12.854 231.982 14.1394C224.912 16.0674 223.948 15.4247 225.877 9.64047C227.483 5.14158 226.519 3.21349 222.984 3.21349C220.092 3.21349 217.843 6.10563 217.843 9.64047Z" fill="#7E7E7E"/>
<path d="M295.288 37.5978C291.432 56.8787 287.254 75.517 286.29 79.3732C285.005 85.1574 285.969 86.7642 291.11 86.7642C296.252 86.7642 298.501 83.2294 302.036 68.4473C305.25 54.9506 308.142 49.4877 312.319 48.845C317.782 47.5596 318.104 49.1664 316.497 61.699C315.533 69.4113 313.605 78.4091 312.319 81.6226C310.391 86.1215 311.677 87.0855 317.461 86.1215C324.531 85.1574 325.816 81.6226 333.85 44.0248L342.526 2.89212L335.456 3.85617C330.315 4.49886 328.065 8.35505 325.173 20.8877C322.603 33.4203 320.674 36.9551 315.533 36.9551C312.319 36.9551 309.749 35.3484 310.07 33.0989C315.212 6.74831 315.212 3.21347 308.785 3.21347C303.322 3.21347 301.394 8.0337 295.288 37.5978Z" fill="#7E7E7E"/>
<path d="M354.416 7.06966C353.452 9.3191 349.917 25.7079 346.382 43.3821C342.526 61.0563 338.67 78.0878 337.706 81.3013C336.421 86.1215 337.706 87.0855 343.49 86.1215C350.239 85.1574 351.845 81.6226 357.951 53.0225C369.841 -0.964067 369.519 3.21347 362.128 3.21347C358.594 3.21347 355.059 5.14156 354.416 7.06966Z" fill="#7E7E7E"/>
<path d="M381.731 4.49888C381.731 5.46293 378.196 22.4944 373.697 43.0607C364.056 87.4069 364.056 86.7642 371.769 86.7642C376.589 86.7642 378.517 82.908 381.409 67.4833C384.944 50.1304 386.23 48.2023 393.299 48.2023C397.477 48.2023 401.012 46.5956 401.012 44.9888C401.012 43.0607 401.012 40.8113 401.012 39.2046C401.012 37.9192 398.441 36.9551 395.227 36.9551C391.371 36.9551 390.086 34.3843 390.728 28.9214C392.014 14.1393 393.942 12.854 410.652 12.854C421.578 12.854 426.72 14.1393 426.72 16.7101C426.398 18.9596 423.185 35.6697 419.007 53.6653L411.616 86.7642H418.686C424.791 86.7642 426.398 83.2294 433.468 50.4518C440.216 18.3169 441.823 14.4607 448.571 13.4966C452.427 12.854 455.641 10.2832 455.641 7.71237C455.641 4.17753 448.571 3.21348 418.686 3.21348C398.441 3.21348 381.731 3.85618 381.731 4.49888Z" fill="#7E7E7E"/>
</g>
<defs>
<clipPath id="clip0_8_81">
<rect width="455.512" height="90" fill="white"/>
</clipPath>
</defs>
</svg>
