<svg width="334" height="90" viewBox="0 0 334 90" fill="none" xmlns="http://www.w3.org/2000/svg">
<path d="M0.621346 0.917358C0.348221 1.0084 0.166138 3.46653 0.166138 6.97163V12.8438H12.4568H24.7474V50.1709V87.498H32.4859H40.2245V50.1709V12.8438H48.3272L56.3844 12.7983L60.3902 6.92611L64.396 1.0084L32.7135 0.917358C15.3246 0.826317 0.84895 0.826317 0.621346 0.917358Z" fill="#7E7E7E"/>
<path d="M170.869 44.2532V87.498H177.242H183.615L183.706 73.3865L183.843 59.2751L195.177 73.3865L206.512 87.498H214.205C220.259 87.498 221.853 87.3614 221.579 86.9062C221.215 86.36 219.531 84.266 205.556 67.1047C201.004 61.5056 197.271 56.7714 197.271 56.5438C197.271 56.1797 209.972 42.5689 219.076 33.1916L221.579 30.5969H213.795H206.011L194.904 42.6144L183.843 54.5864L183.706 27.8202L183.615 1.0084H177.242H170.869V44.2532Z" fill="#7E7E7E"/>
<path d="M133.315 29.4589C126.987 30.5969 121.798 34.2386 119.476 39.2004C118.475 41.3854 118.293 42.3413 118.293 46.074C118.293 49.8978 118.429 50.6716 119.522 52.6745C121.889 57.1356 124.62 59.0475 134.908 63.6451C143.193 67.3323 144.922 68.6524 145.241 71.5657C145.514 74.2969 144.149 76.3909 141.053 77.9386C139.141 78.849 138.185 79.0311 134.908 78.9856C130.811 78.9401 125.303 77.4834 122.253 75.5715C121.388 75.0253 120.569 74.7977 120.341 75.0253C119.34 76.1633 116.199 82.6728 116.426 83.219C116.791 84.175 122.708 86.8607 126.942 87.9987C132.222 89.4099 140.734 89.4554 145.196 88.0442C151.933 85.9958 156.439 81.5803 157.941 75.6626C159.352 70.0635 158.123 64.8741 154.436 60.8683C152.024 58.2736 149.065 56.5438 141.736 53.3574C134.635 50.3075 132.632 49.0329 131.539 46.8024C130.811 45.3457 130.765 44.7994 131.221 43.3883C132.541 38.8817 138.003 37.2885 145.514 39.2004C147.381 39.7011 149.793 40.5205 150.795 41.0212C151.796 41.5675 152.797 41.9772 153.025 41.9772C153.344 41.9772 157.668 34.6028 157.668 34.0565C157.668 33.6468 154.254 31.917 151.386 30.8701C145.787 28.8672 139.323 28.3664 133.315 29.4589Z" fill="#7E7E7E"/>
<path d="M247.481 29.2768C244.067 29.8686 240.471 31.3253 237.33 33.3737C229.91 38.381 225.449 47.9859 225.449 59.1385C225.449 74.479 232.732 84.9943 245.523 88.2263C249.802 89.3188 259.999 88.9091 264.415 87.498C267.829 86.4055 273.519 83.7197 273.974 82.9459C274.111 82.7183 273.291 80.7154 272.108 78.5759C270.514 75.6625 269.786 74.7521 269.24 74.8887C268.83 75.0253 267.237 75.6626 265.644 76.3454C259.407 78.9401 252.716 79.4408 247.708 77.711C244.932 76.7551 241.244 73.432 239.833 70.6097C238.786 68.5613 237.694 63.645 238.149 63.1443C238.286 63.0078 247.071 62.9167 257.723 62.9167H277.069L276.796 56.8624C276.341 46.6658 274.065 40.3839 268.921 35.2401C263.641 30.0052 256.039 27.8657 247.481 29.2768ZM256.494 39.2914C258.679 40.0197 260.864 41.7495 262.139 43.7524C263.413 45.8009 264.642 49.7612 264.642 51.8552V53.3573H251.396H238.104L238.377 51.3089C238.695 48.9873 240.334 45.5278 242.109 43.4338C245.341 39.61 251.805 37.7437 256.494 39.2914Z" fill="#7E7E7E"/>
<path d="M313.987 29.4134C310.163 30.2783 306.794 31.9626 303.426 34.6938C301.878 35.9229 300.558 36.9699 300.467 36.9699C300.422 36.9699 300.422 35.5132 300.513 33.7834L300.649 30.5969H294.959H289.223V59.1385V87.7256L295.596 87.589L301.969 87.4525V67.9695V48.4411L304.063 46.1651C307.887 41.8406 314.032 39.3825 319.586 39.8377L322.454 40.0653L323.546 36.3326C325.413 30.2783 325.367 30.2783 324.274 29.6865C322.727 28.8672 317.082 28.7306 313.987 29.4134Z" fill="#7E7E7E"/>
<path d="M56.1568 50.2619C56.1568 61.6421 56.3844 71.2015 56.6575 72.9313C58.0686 81.8989 63.9408 87.6801 72.8629 88.9546C78.6896 89.7285 85.6543 88.1808 90.8436 84.9033C91.7996 84.357 92.7555 83.8563 92.9831 83.8563C93.2562 83.8563 93.4839 84.6757 93.5749 85.7227L93.7115 87.5435L99.0829 87.6345L104.409 87.7256V59.1385V30.5969H98.0359H91.663L91.572 52.3104L91.4354 74.0693L88.6131 75.5715C82.2857 78.8945 75.0479 78.9856 71.9525 75.7536C69.1757 72.8403 69.1757 72.7948 68.9936 50.7171L68.8571 30.5969H62.4842H56.1568V50.2619Z" fill="#7E7E7E"/>
<path d="M323.819 72.5671C317.902 74.2514 315.899 81.3527 320.087 85.8592C325.003 91.0941 333.788 87.6801 333.834 80.5333C333.834 76.5275 331.649 73.5231 328.007 72.4761C326.05 71.9299 325.959 71.9754 323.819 72.5671Z" fill="#7E7E7E"/>
</svg>
