<svg width="337" height="90" viewBox="0 0 337 90" fill="none" xmlns="http://www.w3.org/2000/svg">
<g clip-path="url(#clip0_5_31)">
<path d="M25.5 56.7L0 2.4H23.7L36.3 36.6L49.2 2.4H72.6L47.4 56.7V87.6H25.5V56.7ZM156.5 2.4H184.7C194.3 2.4 211.4 2.4 222.5 18.3C228.5 26.4 230.3 35.4 230.3 44.7C230.3 68.1 218.9 87.6 186.5 87.6H156.8V2.4H156.5ZM178.1 68.4H187.4C203.6 68.4 208.4 57 208.4 45C208.4 40.2 207.5 34.2 204.2 29.1C201.8 25.2 197.3 21.3 187.7 21.3H178.4V68.4H178.1ZM235.4 2.4H283.7V21.6H257.3V34.8H283.1V54H257.3V68.7H283.7V87.9H235.4V2.4ZM289.7 2.4H311.6V68.4H336.8V87.6H289.7V2.4ZM62.7 45C62.7 20.1 82.8 0 107.7 0C132.6 0 152.7 20.1 152.7 45C152.7 69.9 132.6 90 107.7 90C82.8 90 62.7 69.9 62.7 45ZM107.7 70.5C121.8 70.5 133.2 59.1 133.2 45C133.2 30.9 121.8 19.5 107.7 19.5C93.6 19.5 82.2 30.9 82.2 45C82.2 59.1 93.6 70.5 107.7 70.5Z" fill="#7E7E7E"/>
</g>
<defs>
<clipPath id="clip0_5_31">
<rect width="337" height="90" fill="white"/>
</clipPath>
</defs>
</svg>
